<svg id="Layer_2" enable-background="new 0 0 500 500" viewBox="0 0 500 500" xmlns="http://www.w3.org/2000/svg"><g><path d="m384.7169 109.1963h-317.1146c-15.9047 0-28.798 12.8933-28.798 28.7981v189.2986c0 15.9048 12.8933 28.7979 28.798 28.7979h317.1146c15.9047 0 28.798-12.8931 28.798-28.7979v-189.2986c.0001-15.9048-12.8933-28.7981-28.798-28.7981z" fill="#ddecfd"/><path d="m413.515 327.293v-144.8323c-52.4636 49.061-214.2765 183.032-374.7107 137.9849v6.8474c0 15.9048 12.8933 28.7979 28.798 28.7979h317.1146c15.9047-.0001 28.7981-12.8931 28.7981-28.7979z" fill="#bfd9fe"/><circle cx="385.056" cy="314.663" fill="#ef3d3a" r="76.14"/><path d="m344.0558 378.8071c11.8374 7.5823 25.8989 11.9966 40.9998 11.9966 42.0511 0 76.1402-34.0894 76.1402-76.1404 0-17.8284-6.1442-34.2122-16.4083-47.1873-3.0254 38.0694-20.3339 101.3157-100.7317 111.3311z" fill="#d82121"/><path d="m92.823 163.32h66.996v60.476h-66.996z" fill="#fece32"/><path d="m159.8192 163.3201h-1.6741c-2.5786 15.4661-14.2009 44.908-65.3223 43.8987v16.5769h66.9964z" fill="#faaa36"/><g fill="#050505"><path d="m167.9639 158.7134h-81.6411v73.936h81.6411zm-13 60.936h-55.6411v-47.936h55.6411z"/><path d="m244.847 293.908h27.439v13h-27.439z"/><path d="m85.726 293.908h137.13v13h-137.13z"/><path d="m199.172 189.181h37.133v13h-37.133z"/><path d="m251.532 189.181h37.133v13h-37.133z"/><path d="m303.891 189.181h37.133v13h-37.133z"/><path d="m420.0151 239.8057v-104.3286c0-18.0752-14.7056-32.7808-32.7812-32.7808h-322.1489c-18.0752 0-32.7808 14.7056-32.7808 32.7808v194.333c0 18.0752 14.7056 32.7808 32.7808 32.7808h252.712c15.0009 20.9907 39.5497 34.7129 67.2587 34.7129 45.5679 0 82.6401-37.0723 82.6401-82.6401 0-33.078-19.5425-61.6637-47.6807-74.858zm-354.9301 109.7851c-10.9072 0-19.7808-8.8735-19.7808-19.7808v-194.333c0-10.9072 8.8735-19.7808 19.7808-19.7808h322.1489c10.9072 0 19.7812 8.8735 19.7812 19.7808v99.531c-6.9977-1.9316-14.3559-2.9851-21.9595-2.9851-45.5679 0-82.6401 37.0723-82.6401 82.6406 0 12.478 2.7954 24.3101 7.7682 34.9272h-245.0987zm319.9707 34.7129c-38.3999 0-69.6401-31.2402-69.6401-69.6401s31.2402-69.6406 69.6401-69.6406 69.6401 31.2407 69.6401 69.6406-31.2402 69.6401-69.6401 69.6401z"/><path d="m403.2148 287.3115-18.1594 18.1594-18.1594-18.1594-9.1924 9.1924 18.1594 18.1594-18.1594 18.1595 9.1924 9.1923 18.1594-18.1594 18.1594 18.1594 9.1924-9.1923-18.1594-18.1595 18.1594-18.1594z"/></g></g></svg>