<svg width="93" height="93" viewBox="0 0 93 93" fill="none" xmlns="http://www.w3.org/2000/svg">

    <path d="M92.9189 46.9191C92.9189 72.3242 72.324 92.9191 46.9189 92.9191C21.5138 92.9191 0.918945 72.3242 0.918945 46.9191C0.918945 21.514 21.5138 0.919098 46.9189 0.919098C72.324 0.919098 92.9189 21.514 92.9189 46.9191ZM3.72034 46.9191C3.72034 70.777 23.061 90.1177 46.9189 90.1177C70.7769 90.1177 90.1175 70.777 90.1175 46.9191C90.1175 23.0612 70.7769 3.7205 46.9189 3.7205C23.061 3.7205 3.72034 23.0612 3.72034 46.9191Z" fill="#40D6FF"/>

    <path id="Ellipse 1" d="M91.5182 46.936C92.2918 46.9363 92.9214 46.3091 92.8981 45.5359C92.6393 36.928 89.9683 28.5551 85.1762 21.3773C80.1246 13.8108 72.9426 7.91209 64.5385 4.42726C56.1344 0.94243 46.8857 0.0279578 37.9619 1.79949C29.0381 3.57102 20.84 7.94897 14.4044 14.3797C7.96873 20.8105 3.58453 29.0053 1.80622 37.9277C0.0279058 46.8502 0.935345 56.0996 4.41378 64.5063C7.89221 72.913 13.7854 80.0995 21.3482 85.1569C28.5223 89.9545 36.8932 92.6318 45.5008 92.8972C46.274 92.921 46.9017 92.2919 46.902 91.5183C46.9023 90.7447 46.2751 90.1198 45.5019 90.0944C37.4485 89.8301 29.619 87.3178 22.9054 82.8282C15.8032 78.0788 10.2689 71.33 7.00234 63.4352C3.73574 55.5405 2.88357 46.8544 4.55358 38.4753C6.2236 30.0962 10.3408 22.4005 16.3845 16.3614C22.4282 10.3223 30.1271 6.21091 38.5074 4.54727C46.8877 2.88363 55.5732 3.7424 63.4655 7.015C71.3578 10.2876 78.1024 15.827 82.8464 22.9328C87.3308 29.6498 89.8372 37.4812 90.0954 45.5349C90.1201 46.3081 90.7446 46.9357 91.5182 46.936Z" fill="black"/>

    <circle cx="46" cy="46" r="34" fill="#00AAD8"/>
    <path d="M39.5833 46L52.4166 46" stroke="white" stroke-width="2" stroke-linecap="round" stroke-linejoin="round"/>
    <path d="M46 39.5833L52.4167 46L46 52.4167" stroke="white" stroke-width="2" stroke-linecap="round" stroke-linejoin="round"/>

</svg>
