<svg width="30" height="31" viewBox="0 0 30 31" fill="none" xmlns="http://www.w3.org/2000/svg">
<g id="fluent:ios-arrow-24-filled">
<path id="Vector" d="M15.9087 25.8913C16.0215 26.0106 16.1096 26.151 16.1681 26.3044C16.2267 26.4578 16.2544 26.6212 16.2497 26.7854C16.2451 26.9495 16.2082 27.1111 16.1411 27.2609C16.074 27.4108 15.978 27.546 15.8587 27.6588C15.7393 27.7715 15.599 27.8597 15.4455 27.9182C15.2921 27.9767 15.1287 28.0045 14.9646 27.9998C14.8004 27.9952 14.6388 27.9582 14.489 27.8911C14.3391 27.824 14.204 27.7281 14.0912 27.6088L3.46618 16.3588C3.24676 16.1267 3.1245 15.8194 3.1245 15.5C3.1245 15.1806 3.24676 14.8733 3.46618 14.6413L14.0912 3.39C14.2032 3.26805 14.3384 3.16957 14.4888 3.10029C14.6392 3.03101 14.8018 2.99231 14.9673 2.98643C15.1328 2.98055 15.2978 3.00761 15.4528 3.06604C15.6077 3.12447 15.7495 3.21311 15.8699 3.3268C15.9903 3.4405 16.0869 3.57698 16.1541 3.72833C16.2214 3.87967 16.2578 4.04286 16.2614 4.20842C16.265 4.37398 16.2357 4.5386 16.1751 4.69273C16.1146 4.84686 16.024 4.98742 15.9087 5.10625L6.09368 15.5L15.9087 25.8913Z" fill="black"/>
</g>
</svg>
