<svg width="30" height="30" viewBox="0 0 30 30" fill="none" xmlns="http://www.w3.org/2000/svg">
<path d="M22.7252 10.05L23.304 9.46999C23.7648 9.00901 24.3898 8.74996 25.0416 8.74985C25.6935 8.74973 26.3186 9.00855 26.7796 9.46936C27.2406 9.93017 27.4996 10.5552 27.4997 11.207C27.4998 11.8589 27.241 12.484 26.7802 12.945L26.2015 13.525M22.7252 10.05C22.7252 10.05 22.7977 11.28 23.884 12.3662C24.9702 13.4525 26.2015 13.525 26.2015 13.525M22.7252 10.05L17.4002 15.375C17.0377 15.735 16.8577 15.9162 16.7027 16.115C16.5202 16.35 16.364 16.6025 16.2352 16.8725C16.1265 17.1 16.0465 17.3412 15.8852 17.825L15.369 19.375L15.2015 19.8762M26.2015 13.525L20.8765 18.85C20.514 19.2125 20.334 19.3925 20.1352 19.5475C19.9002 19.73 19.6477 19.8862 19.3777 20.015C19.1502 20.1237 18.909 20.2037 18.4252 20.365L16.8752 20.8812L16.374 21.0487M15.2015 19.8762L15.0352 20.3787C14.9965 20.4954 14.991 20.6205 15.0193 20.7401C15.0476 20.8597 15.1086 20.969 15.1955 21.0559C15.2824 21.1428 15.3918 21.2039 15.5114 21.2322C15.631 21.2605 15.7561 21.255 15.8727 21.2162L16.374 21.0487M15.2015 19.8762L16.374 21.0487" stroke="#00AAD8" stroke-width="1.5"/>
<path d="M10 16.25H13.125M10 11.25H18.125M10 21.25H11.875M3.75 17.5V12.5C3.75 7.78625 3.75 5.42875 5.215 3.965C6.67875 2.5 9.03625 2.5 13.75 2.5H16.25C20.9637 2.5 23.3212 2.5 24.785 3.965M26.25 17.5C26.25 22.2137 26.25 24.5712 24.785 26.035M24.785 26.035C23.3212 27.5 20.9637 27.5 16.25 27.5H13.75C9.03625 27.5 6.67875 27.5 5.215 26.035M24.785 26.035C25.965 24.8562 26.1937 23.1 26.2387 20" stroke="#00AAD8" stroke-width="1.5" stroke-linecap="round"/>
</svg>
