<svg width="30" height="30" viewBox="0 0 30 30" fill="none" xmlns="http://www.w3.org/2000/svg">
<path d="M9.80375 25.2475C12.34 26.7488 13.6075 27.5 15 27.5C16.3925 27.5 17.66 26.75 20.1962 25.2475L21.0538 24.7388C23.59 23.2388 24.8575 22.4863 25.5538 21.25C26.25 20.0125 26.25 18.5125 26.25 15.5075M26.0188 10C25.9275 9.56232 25.7707 9.14091 25.5538 8.75C24.8575 7.5125 23.59 6.7625 21.0538 5.26L20.1962 4.7525C17.66 3.25125 16.3925 2.5 15 2.5C13.6075 2.5 12.34 3.25 9.80375 4.7525L8.94625 5.26C6.41 6.7625 5.1425 7.51375 4.44625 8.75C3.75 9.9875 3.75 11.4875 3.75 14.4925V15.5075C3.75 18.5113 3.75 20.0138 4.44625 21.25C4.72875 21.7525 5.10625 22.175 5.625 22.6" stroke="black" stroke-width="2" stroke-linecap="round"/>
<path d="M15 18.75C17.0711 18.75 18.75 17.0711 18.75 15C18.75 12.9289 17.0711 11.25 15 11.25C12.9289 11.25 11.25 12.9289 11.25 15C11.25 17.0711 12.9289 18.75 15 18.75Z" stroke="black" stroke-width="2"/>
</svg>
