<svg width="30" height="30" viewBox="0 0 30 30" fill="none" xmlns="http://www.w3.org/2000/svg">
<path fill-rule="evenodd" clip-rule="evenodd" d="M13.68 1.5625H16.32C18.6175 1.5625 20.4375 1.5625 21.8612 1.75375C23.3263 1.95125 24.5125 2.36625 25.4487 3.30125C25.6143 3.47897 25.7045 3.71403 25.7002 3.9569C25.6959 4.19978 25.5975 4.43151 25.4258 4.60328C25.254 4.77504 25.0223 4.87343 24.7794 4.87772C24.5365 4.882 24.3015 4.79185 24.1238 4.62625C23.5938 4.09875 22.8687 3.78125 21.6112 3.6125C20.3275 3.44 18.6337 3.4375 16.25 3.4375H13.75C11.3663 3.4375 9.67375 3.44 8.3875 3.6125C7.13125 3.78125 6.40625 4.09875 5.8775 4.6275C5.34875 5.15625 5.03125 5.88125 4.8625 7.13875C4.69 8.42375 4.6875 10.1162 4.6875 12.5V17.5C4.6875 19.8837 4.69 21.5775 4.8625 22.8625C5.03125 24.1187 5.34875 24.8438 5.8775 25.3725C6.40625 25.9012 7.13125 26.2187 8.38875 26.3875C9.67375 26.56 11.3663 26.5625 13.75 26.5625H16.25C18.6337 26.5625 20.3275 26.56 21.6125 26.3875C22.8688 26.2187 23.5938 25.9012 24.1225 25.3725C24.9925 24.5025 25.2562 23.1512 25.3012 19.9862C25.3049 19.7376 25.4072 19.5006 25.5856 19.3274C25.764 19.1541 26.0039 19.0589 26.2525 19.0625C26.5011 19.0661 26.7381 19.1684 26.9114 19.3468C27.0846 19.5252 27.1799 19.7651 27.1762 20.0137C27.1325 23.0475 26.9363 25.2112 25.4487 26.6987C24.5125 27.6337 23.3263 28.0487 21.8612 28.2462C20.4363 28.4375 18.6175 28.4375 16.32 28.4375H13.68C11.3825 28.4375 9.5625 28.4375 8.13875 28.2462C6.67375 28.0487 5.4875 27.6337 4.55125 26.6987C3.61625 25.7625 3.20125 24.5762 3.00375 23.1112C2.8125 21.6862 2.8125 19.8675 2.8125 17.57V12.43C2.8125 10.1325 2.8125 8.3125 3.00375 6.88875C3.20125 5.42375 3.61625 4.2375 4.55125 3.30125C5.4875 2.36625 6.67375 1.95125 8.13875 1.75375C9.56375 1.5625 11.3825 1.5625 13.68 1.5625ZM22.6425 8.8075C22.955 8.4804 23.3297 8.21904 23.7446 8.03878C24.1595 7.85853 24.6062 7.76301 25.0586 7.75783C25.5109 7.75266 25.9597 7.83794 26.3786 8.00867C26.7976 8.17939 27.1781 8.43211 27.498 8.75199C27.8179 9.07186 28.0706 9.45243 28.2413 9.87135C28.4121 10.2903 28.4973 10.7391 28.4922 11.1914C28.487 11.6438 28.3915 12.0905 28.2112 12.5054C28.031 12.9203 27.7696 13.295 27.4425 13.6075L21.5 19.5537C21.2528 19.8142 20.9898 20.0592 20.7125 20.2875C20.425 20.5125 20.1125 20.705 19.7825 20.8625C19.5025 20.9963 19.2075 21.0937 18.775 21.2375L16.17 22.1062C15.8879 22.2006 15.5851 22.2145 15.2956 22.1463C15.0061 22.0782 14.7413 21.9306 14.5309 21.7203C14.3206 21.51 14.1731 21.2452 14.1049 20.9557C14.0367 20.6661 14.0506 20.3633 14.145 20.0812L14.9963 17.5312L15.0137 17.4775C15.1587 17.0437 15.2563 16.75 15.39 16.47C15.5474 16.1401 15.7402 15.8282 15.965 15.54C16.1563 15.295 16.375 15.0762 16.6988 14.7525L16.7375 14.7137L22.6425 8.8075ZM26.1175 10.1325C25.9763 9.99129 25.8088 9.87928 25.6243 9.80286C25.4399 9.72644 25.2422 9.6871 25.0425 9.6871C24.8428 9.6871 24.6451 9.72644 24.4607 9.80286C24.2762 9.87928 24.1087 9.99129 23.9675 10.1325L23.74 10.36C23.7525 10.4012 23.7662 10.4475 23.7825 10.4937C23.9 10.8312 24.1237 11.2812 24.5462 11.7037C24.9202 12.08 25.382 12.3571 25.89 12.51L26.1175 12.2825C26.2587 12.1413 26.3707 11.9738 26.4471 11.7893C26.5236 11.6049 26.5629 11.4072 26.5629 11.2075C26.5629 11.0078 26.5236 10.8101 26.4471 10.6257C26.3707 10.4412 26.2587 10.2737 26.1175 10.1325ZM24.4575 13.9425C24.0013 13.7026 23.5841 13.3949 23.22 13.03C22.8551 12.6659 22.5474 12.2487 22.3075 11.7925L18.0625 16.0375C17.6863 16.4137 17.5538 16.5487 17.4425 16.6912C17.3013 16.8725 17.18 17.0687 17.0812 17.275C17.0037 17.4387 16.9425 17.6175 16.7738 18.1225L16.2737 19.6225L16.6275 19.9762L18.1275 19.4762C18.6325 19.3075 18.8113 19.2462 18.975 19.1687C19.1813 19.0687 19.3775 18.9487 19.5588 18.8075C19.7013 18.6962 19.8363 18.5637 20.2125 18.1875L24.4575 13.9425ZM9.0625 11.25C9.0625 11.0014 9.16127 10.7629 9.33709 10.5871C9.5129 10.4113 9.75136 10.3125 10 10.3125H18.125C18.3736 10.3125 18.6121 10.4113 18.7879 10.5871C18.9637 10.7629 19.0625 11.0014 19.0625 11.25C19.0625 11.4986 18.9637 11.7371 18.7879 11.9129C18.6121 12.0887 18.3736 12.1875 18.125 12.1875H10C9.75136 12.1875 9.5129 12.0887 9.33709 11.9129C9.16127 11.7371 9.0625 11.4986 9.0625 11.25ZM9.0625 16.25C9.0625 16.0014 9.16127 15.7629 9.33709 15.5871C9.5129 15.4113 9.75136 15.3125 10 15.3125H13.125C13.3736 15.3125 13.6121 15.4113 13.7879 15.5871C13.9637 15.7629 14.0625 16.0014 14.0625 16.25C14.0625 16.4986 13.9637 16.7371 13.7879 16.9129C13.6121 17.0887 13.3736 17.1875 13.125 17.1875H10C9.75136 17.1875 9.5129 17.0887 9.33709 16.9129C9.16127 16.7371 9.0625 16.4986 9.0625 16.25ZM9.0625 21.25C9.0625 21.0014 9.16127 20.7629 9.33709 20.5871C9.5129 20.4113 9.75136 20.3125 10 20.3125H11.875C12.1236 20.3125 12.3621 20.4113 12.5379 20.5871C12.7137 20.7629 12.8125 21.0014 12.8125 21.25C12.8125 21.4986 12.7137 21.7371 12.5379 21.9129C12.3621 22.0887 12.1236 22.1875 11.875 22.1875H10C9.75136 22.1875 9.5129 22.0887 9.33709 21.9129C9.16127 21.7371 9.0625 21.4986 9.0625 21.25Z" fill="black"/>
</svg>
