<svg width="18" height="18" viewBox="0 0 18 18" fill="none" xmlns="http://www.w3.org/2000/svg">
<path d="M5.39995 2.7C4.68387 2.7 3.99711 2.98446 3.49076 3.49081C2.98441 3.99716 2.69995 4.68391 2.69995 5.4V12.6C2.69995 13.3161 2.98441 14.0028 3.49076 14.5092C3.99711 15.0155 4.68387 15.3 5.39995 15.3H12.6C13.316 15.3 14.0028 15.0155 14.5091 14.5092C15.0155 14.0028 15.3 13.3161 15.3 12.6V5.4C15.3 4.68391 15.0155 3.99716 14.5091 3.49081C14.0028 2.98446 13.316 2.7 12.6 2.7H5.39995ZM3.59995 5.4C3.59995 4.92261 3.78959 4.46477 4.12716 4.1272C4.46472 3.78964 4.92256 3.6 5.39995 3.6H12.6C13.0773 3.6 13.5352 3.78964 13.8727 4.1272C14.2103 4.46477 14.4 4.92261 14.4 5.4V12.6C14.4 13.0774 14.2103 13.5352 13.8727 13.8728C13.5352 14.2104 13.0773 14.4 12.6 14.4H5.39995C4.92256 14.4 4.46472 14.2104 4.12716 13.8728C3.78959 13.5352 3.59995 13.0774 3.59995 12.6V5.4ZM12.0186 7.5186C12.103 7.4341 12.1505 7.3195 12.1505 7.2C12.1505 7.0805 12.103 6.96589 12.0186 6.8814C11.9341 6.7969 11.8194 6.74943 11.7 6.74943C11.5805 6.74943 11.4658 6.7969 11.3814 6.8814L8.09995 10.1637L6.61855 8.6814C6.57671 8.63956 6.52704 8.60637 6.47238 8.58373C6.41771 8.56108 6.35912 8.54943 6.29995 8.54943C6.24078 8.54943 6.18219 8.56108 6.12753 8.58373C6.07286 8.60637 6.02319 8.63956 5.98135 8.6814C5.93951 8.72324 5.90632 8.77291 5.88368 8.82757C5.86104 8.88224 5.84938 8.94083 5.84938 9C5.84938 9.05917 5.86104 9.11776 5.88368 9.17242C5.90632 9.22709 5.93951 9.27676 5.98135 9.3186L7.78135 11.1186C7.82315 11.1605 7.87281 11.1938 7.92748 11.2164C7.98215 11.2391 8.04076 11.2508 8.09995 11.2508C8.15914 11.2508 8.21775 11.2391 8.27242 11.2164C8.32709 11.1938 8.37675 11.1605 8.41855 11.1186L12.0186 7.5186Z" fill="black"/>
</svg>
