<svg width="35" height="35" viewBox="0 0 35 35" fill="none" xmlns="http://www.w3.org/2000/svg">
<g clip-path="url(#clip0_80_207)">
<path d="M18.65 9.00009C21.9022 9.00009 23.5294 9.00009 24.5391 10.0109C25.55 11.0206 25.55 12.6479 25.55 15.9001C25.55 19.1523 25.55 20.7795 24.5391 21.7892C23.5294 22.8001 21.9022 22.8001 18.65 22.8001H12.9C9.6478 22.8001 8.02055 22.8001 7.01085 21.7892C6 20.7795 6 19.1523 6 15.9001C6 12.6479 6 11.0206 7.01085 10.0109C8.02055 9.00009 9.6478 9.00009 12.9 9.00009H14.05M22.1 26.2501H16.35C13.0978 26.2501 11.4717 26.2501 10.4609 25.2392C9.89735 24.6757 9.6478 23.9213 9.5374 22.8001M27.9903 25.2392C29 24.2295 29 22.6023 29 19.3512C29 16.0967 29 14.4706 27.9903 13.4609C27.4268 12.8974 26.6712 12.6479 25.55 12.5375" stroke="black" stroke-width="1.5" stroke-linecap="round"/>
<path d="M18.6499 15.8998C18.6499 16.6623 18.347 17.3936 17.8078 17.9327C17.2687 18.4719 16.5374 18.7748 15.7749 18.7748C15.0124 18.7748 14.2811 18.4719 13.742 17.9327C13.2028 17.3936 12.8999 16.6623 12.8999 15.8998C12.8999 15.1373 13.2028 14.406 13.742 13.8669C14.2811 13.3277 15.0124 13.0248 15.7749 13.0248C16.5374 13.0248 17.2687 13.3277 17.8078 13.8669C18.347 14.406 18.6499 15.1373 18.6499 15.8998Z" stroke="black" stroke-width="1.5"/>
<path d="M22.1002 18.2004V13.6004M9.4502 18.2004V13.6004" stroke="black" stroke-width="1.5" stroke-linecap="round"/>
</g>
<defs>
<clipPath id="clip0_80_207">
<rect width="25" height="25" fill="white" transform="translate(5 5)"/>
</clipPath>
</defs>
</svg>
