<svg width="50" height="50" viewBox="0 0 50 50" fill="none" xmlns="http://www.w3.org/2000/svg">
<path d="M27.1 9C33.0388 9 36.0103 9 37.8541 10.8459C39.7 12.6897 39.7 15.6612 39.7 21.6C39.7 27.5388 39.7 30.5103 37.8541 32.3541C36.0103 34.2 33.0388 34.2 27.1 34.2H16.6C10.6612 34.2 7.6897 34.2 5.8459 32.3541C4 30.5103 4 27.5388 4 21.6C4 15.6612 4 12.6897 5.8459 10.8459C7.6897 9 10.6612 9 16.6 9H18.7M33.4 40.5H22.9C16.9612 40.5 13.9918 40.5 12.1459 38.6541C11.1169 37.6251 10.6612 36.2475 10.4596 34.2M44.1562 38.6541C46 36.8103 46 33.8388 46 27.9021C46 21.9591 46 18.9897 44.1562 17.1459C43.1272 16.1169 41.7475 15.6612 39.7 15.4596" stroke="#E3F9FF" stroke-width="3" stroke-linecap="round"/>
<path d="M27.1001 21.6C27.1001 22.9924 26.547 24.3278 25.5624 25.3123C24.5778 26.2969 23.2425 26.85 21.8501 26.85C20.4577 26.85 19.1224 26.2969 18.1378 25.3123C17.1532 24.3278 16.6001 22.9924 16.6001 21.6C16.6001 20.2076 17.1532 18.8723 18.1378 17.8877C19.1224 16.9031 20.4577 16.35 21.8501 16.35C23.2425 16.35 24.5778 16.9031 25.5624 17.8877C26.547 18.8723 27.1001 20.2076 27.1001 21.6Z" stroke="#E3F9FF" stroke-width="3"/>
<path d="M33.4 25.8V17.4M10.3 25.8V17.4" stroke="#E3F9FF" stroke-width="3" stroke-linecap="round"/>
</svg>
