<svg width="12" height="12" viewBox="0 0 12 12" fill="none" xmlns="http://www.w3.org/2000/svg">
<rect width="430" height="932" transform="translate(-116.5 -724.5)" fill="white"/>
<path d="M6.75 1C6.75 1 7.917 1.106 9.4015 2.591C10.8865 4.076 10.9925 5.2425 10.9925 5.2425M7.1035 2.768C7.1035 2.768 7.5985 2.909 8.341 3.6515C9.0835 4.394 9.225 4.889 9.225 4.889" stroke="black" stroke-linecap="round"/>
<path d="M7.77801 7.27351L7.50601 7.01551L7.77801 7.27401V7.27351ZM9.50101 10.127L9.22851 9.86851L9.50051 10.127H9.50101ZM8.83801 10.482L8.87501 10.8545L8.83801 10.4815V10.482ZM1.87601 3.46251C1.87335 3.41333 1.86103 3.36516 1.83976 3.32074C1.81848 3.27632 1.78866 3.23653 1.752 3.20363C1.71535 3.17074 1.67257 3.14539 1.62612 3.12902C1.57966 3.11266 1.53044 3.1056 1.48126 3.10826C1.43208 3.11092 1.38391 3.12324 1.33949 3.14452C1.29507 3.1658 1.25528 3.19562 1.22238 3.23227C1.18949 3.26893 1.16413 3.3117 1.14777 3.35816C1.13141 3.40461 1.12435 3.45383 1.12701 3.50301L1.87601 3.46251ZM2.35901 1.54601C2.29334 1.61858 2.25865 1.71395 2.26234 1.81175C2.26602 1.90955 2.3078 2.00204 2.37874 2.06946C2.44969 2.13688 2.54418 2.17389 2.64204 2.17259C2.7399 2.1713 2.83338 2.13179 2.90251 2.06251L2.35901 1.54601ZM5.33201 9.90601C5.37371 9.93289 5.42033 9.95122 5.46916 9.95995C5.51799 9.96868 5.56807 9.96764 5.6165 9.95687C5.66493 9.94611 5.71074 9.92585 5.75128 9.89726C5.79182 9.86867 5.82628 9.83232 5.85267 9.79032C5.87907 9.74831 5.89686 9.70149 5.90503 9.65256C5.9132 9.60363 5.91158 9.55356 5.90027 9.50526C5.88895 9.45696 5.86817 9.41139 5.83911 9.37118C5.81006 9.33097 5.77332 9.29692 5.73101 9.27101L5.33201 9.90601ZM7.55651 10.029C7.45911 10.0087 7.35761 10.0278 7.27435 10.0823C7.19108 10.1368 7.13287 10.2221 7.11251 10.3195C7.09216 10.4169 7.11133 10.5184 7.16581 10.6017C7.22029 10.6849 7.30561 10.7432 7.40301 10.7635L7.55651 10.029ZM7.82251 7.77201L8.05001 7.53201L7.50601 7.01551L7.27851 7.25551L7.82251 7.77201ZM8.79951 7.43102L9.75451 7.98101L10.1285 7.33101L9.17351 6.78101L8.79951 7.43102ZM9.93901 9.12102L9.22851 9.86851L9.77251 10.3855L10.4825 9.63751L9.93901 9.12102ZM4.17951 7.97951C2.24151 5.93901 1.91651 4.21751 1.87601 3.46251L1.12701 3.50301C1.17701 4.42801 1.56901 6.32001 3.63601 8.49602L4.17951 7.97951ZM4.86751 4.66101L5.01051 4.51001L4.46701 3.99351L4.32351 4.14451L4.86751 4.66101ZM5.12351 2.63001L4.49301 1.73851L3.88051 2.17151L4.51051 3.06301L5.12351 2.63001ZM4.59501 4.40251C4.50502 4.31579 4.41419 4.22995 4.32251 4.14501L4.32151 4.14601L4.32001 4.14751C4.31114 4.1567 4.30279 4.16638 4.29501 4.17651C4.246 4.24139 4.20722 4.31339 4.18001 4.39001C4.13101 4.52751 4.10501 4.70951 4.13801 4.93651C4.20301 5.38251 4.49551 5.98201 5.25901 6.78651L5.80301 6.26951C5.08901 5.51801 4.91301 5.05551 4.88001 4.82751C4.86401 4.71751 4.88001 4.66001 4.88651 4.64151L4.89051 4.63201C4.88642 4.6386 4.88174 4.64479 4.87651 4.65051C4.87358 4.65391 4.87058 4.65774 4.86751 4.66101L4.59501 4.40251ZM5.25901 6.78601C6.02051 7.58801 6.59551 7.90301 7.03401 7.97451C7.25951 8.01101 7.44201 7.98151 7.58001 7.92701C7.65647 7.897 7.72756 7.85478 7.79051 7.80201L7.80851 7.78501L7.81551 7.77801C7.81669 7.77703 7.81786 7.77603 7.81901 7.77501L7.82051 7.77351L7.82101 7.77251C7.82101 7.77251 7.82201 7.77201 7.55001 7.51351C7.27801 7.25551 7.27851 7.25501 7.27851 7.25451L7.27951 7.25401L7.28051 7.25251L7.28351 7.25001C7.29107 7.24271 7.29891 7.23571 7.30701 7.22901C7.31151 7.22601 7.31101 7.22701 7.30451 7.22951C7.29451 7.23351 7.24951 7.24951 7.15451 7.23401C6.95351 7.20101 6.51951 7.02401 5.80301 6.26951L5.25901 6.78601ZM4.49301 1.73851C3.98601 1.02151 2.97201 0.900014 2.35901 1.54601L2.90251 2.06251C3.16401 1.78751 3.62451 1.80901 3.88051 2.17151L4.49301 1.73851ZM9.22851 9.86851C9.08901 10.0155 8.94351 10.0945 8.80151 10.1085L8.87501 10.8545C9.24851 10.818 9.55101 10.619 9.77251 10.3855L9.22851 9.86901V9.86851ZM5.01051 4.51001C5.49451 4.00051 5.52851 3.20351 5.12351 2.63001L4.51101 3.06301C4.72201 3.36151 4.68951 3.75951 4.46701 3.99351L5.01051 4.51001ZM9.75451 7.98101C10.165 8.21751 10.2455 8.79851 9.93901 9.12102L10.4825 9.63751C11.135 8.95051 10.9445 7.80101 10.1285 7.33101L9.75451 7.98101ZM8.05001 7.53201C8.24251 7.32901 8.54301 7.28351 8.79951 7.43102L9.17351 6.78101C8.62401 6.46501 7.94351 6.55551 7.50601 7.01551L8.05001 7.53201ZM5.73101 9.27101C5.23951 8.96201 4.71601 8.54401 4.17951 7.97951L3.63601 8.49602C4.21301 9.10352 4.78451 9.56201 5.33201 9.90601L5.73101 9.27101ZM8.80101 10.1085C8.38454 10.1451 7.96494 10.1183 7.55651 10.029L7.40301 10.7635C7.88624 10.8682 8.38257 10.8989 8.87501 10.8545L8.80151 10.1085H8.80101Z" fill="black"/>
</svg>
