<svg width="45" height="44" viewBox="0 0 45 44" fill="none" xmlns="http://www.w3.org/2000/svg">
<path d="M26.7 42.45H18.3C10.3809 42.45 6.4203 42.45 3.9612 39.9888C1.5 37.5297 1.5 33.5691 1.5 25.65V21.45C1.5 13.5309 1.5 9.5703 3.9612 7.1112C6.4203 4.65 10.3809 4.65 18.3 4.65H26.7C34.6191 4.65 38.5797 4.65 41.0388 7.1112C43.5 9.5703 43.5 13.5309 43.5 21.45V25.65C43.5 33.5691 43.5 37.5297 41.0388 39.9888C39.6675 41.3622 37.83 41.9691 35.1 42.2358M12 4.65V1.5M33 4.65V1.5M42.45 15.15H19.875M1.5 15.15H9.6375" stroke="#E3F9FF" stroke-width="3" stroke-linecap="round"/>
<path d="M35.0997 31.95C35.0997 32.5069 34.8784 33.0411 34.4846 33.4349C34.0908 33.8287 33.5566 34.05 32.9997 34.05C32.4427 34.05 31.9086 33.8287 31.5147 33.4349C31.1209 33.0411 30.8997 32.5069 30.8997 31.95C30.8997 31.393 31.1209 30.8589 31.5147 30.4651C31.9086 30.0712 32.4427 29.85 32.9997 29.85C33.5566 29.85 34.0908 30.0712 34.4846 30.4651C34.8784 30.8589 35.0997 31.393 35.0997 31.95ZM35.0997 23.55C35.0997 24.1069 34.8784 24.6411 34.4846 25.0349C34.0908 25.4287 33.5566 25.65 32.9997 25.65C32.4427 25.65 31.9086 25.4287 31.5147 25.0349C31.1209 24.6411 30.8997 24.1069 30.8997 23.55C30.8997 22.993 31.1209 22.4589 31.5147 22.0651C31.9086 21.6712 32.4427 21.45 32.9997 21.45C33.5566 21.45 34.0908 21.6712 34.4846 22.0651C34.8784 22.4589 35.0997 22.993 35.0997 23.55ZM24.5997 31.95C24.5997 32.5069 24.3784 33.0411 23.9846 33.4349C23.5908 33.8287 23.0566 34.05 22.4997 34.05C21.9427 34.05 21.4086 33.8287 21.0147 33.4349C20.6209 33.0411 20.3997 32.5069 20.3997 31.95C20.3997 31.393 20.6209 30.8589 21.0147 30.4651C21.4086 30.0712 21.9427 29.85 22.4997 29.85C23.0566 29.85 23.5908 30.0712 23.9846 30.4651C24.3784 30.8589 24.5997 31.393 24.5997 31.95ZM24.5997 23.55C24.5997 24.1069 24.3784 24.6411 23.9846 25.0349C23.5908 25.4287 23.0566 25.65 22.4997 25.65C21.9427 25.65 21.4086 25.4287 21.0147 25.0349C20.6209 24.6411 20.3997 24.1069 20.3997 23.55C20.3997 22.993 20.6209 22.4589 21.0147 22.0651C21.4086 21.6712 21.9427 21.45 22.4997 21.45C23.0566 21.45 23.5908 21.6712 23.9846 22.0651C24.3784 22.4589 24.5997 22.993 24.5997 23.55ZM14.0997 31.95C14.0997 32.5069 13.8784 33.0411 13.4846 33.4349C13.0908 33.8287 12.5566 34.05 11.9997 34.05C11.4427 34.05 10.9086 33.8287 10.5147 33.4349C10.1209 33.0411 9.89966 32.5069 9.89966 31.95C9.89966 31.393 10.1209 30.8589 10.5147 30.4651C10.9086 30.0712 11.4427 29.85 11.9997 29.85C12.5566 29.85 13.0908 30.0712 13.4846 30.4651C13.8784 30.8589 14.0997 31.393 14.0997 31.95ZM14.0997 23.55C14.0997 24.1069 13.8784 24.6411 13.4846 25.0349C13.0908 25.4287 12.5566 25.65 11.9997 25.65C11.4427 25.65 10.9086 25.4287 10.5147 25.0349C10.1209 24.6411 9.89966 24.1069 9.89966 23.55C9.89966 22.993 10.1209 22.4589 10.5147 22.0651C10.9086 21.6712 11.4427 21.45 11.9997 21.45C12.5566 21.45 13.0908 21.6712 13.4846 22.0651C13.8784 22.4589 14.0997 22.993 14.0997 23.55Z" fill="#E3F9FF"/>
</svg>
