<svg width="30" height="30" viewBox="0 0 30 30" fill="none" xmlns="http://www.w3.org/2000/svg">
<path d="M12.6562 11.0938C12.6563 10.6833 12.7641 10.2801 12.969 9.92438C13.1738 9.5687 13.4685 9.27305 13.8235 9.06701C14.1785 8.86097 14.5813 8.75177 14.9918 8.75033C15.4022 8.74889 15.8059 8.85526 16.1623 9.05881C16.5187 9.26235 16.8154 9.55593 17.0228 9.91017C17.2301 10.2644 17.3408 10.6669 17.3437 11.0773C17.3466 11.4878 17.2417 11.8918 17.0395 12.2489C16.8372 12.6061 16.5447 12.9039 16.1913 13.1125C15.5975 13.4637 15 13.9975 15 14.6875V16.25" stroke="black" stroke-width="2" stroke-linecap="round"/>
<path d="M15 21.25C15.6904 21.25 16.25 20.6904 16.25 20C16.25 19.3096 15.6904 18.75 15 18.75C14.3096 18.75 13.75 19.3096 13.75 20C13.75 20.6904 14.3096 21.25 15 21.25Z" fill="black"/>
<path d="M27.5 15C27.5 20.8925 27.5 23.8387 25.6687 25.6687C23.84 27.5 20.8925 27.5 15 27.5C9.1075 27.5 6.16125 27.5 4.33 25.6687C2.5 23.84 2.5 20.8925 2.5 15C2.5 9.1075 2.5 6.16125 4.33 4.33C6.1625 2.5 9.1075 2.5 15 2.5C20.8925 2.5 23.8387 2.5 25.6687 4.33C26.8862 5.5475 27.2937 7.25875 27.4312 10" stroke="black" stroke-width="2" stroke-linecap="round"/>
</svg>
