<svg width="10" height="10" viewBox="0 0 10 10" fill="none" xmlns="http://www.w3.org/2000/svg">
<g clip-path="url(#clip0_168_1059)">
<path d="M5.00031 0.625C6.16072 0.625 7.2736 1.08597 8.09413 1.9065C8.91466 2.72703 9.37562 3.83991 9.37562 5.00031C9.37562 6.16072 8.91466 7.27359 8.09413 8.09412C7.2736 8.91465 6.16072 9.37562 5.00031 9.37562C3.83991 9.37562 2.72703 8.91465 1.9065 8.09412C1.08597 7.27359 0.625 6.16072 0.625 5.00031C0.625 3.83991 1.08597 2.72703 1.9065 1.9065C2.72703 1.08597 3.83991 0.625 5.00031 0.625ZM5.65656 3.31125C5.98156 3.31125 6.24531 3.08562 6.24531 2.75125C6.24531 2.41687 5.98094 2.19125 5.65656 2.19125C5.33156 2.19125 5.06906 2.41687 5.06906 2.75125C5.06906 3.08562 5.33156 3.31125 5.65656 3.31125ZM5.77094 6.82812C5.77094 6.76125 5.79406 6.5875 5.78094 6.48875L5.26719 7.08C5.16094 7.19187 5.02781 7.26937 4.96531 7.24875C4.93696 7.23831 4.91326 7.2181 4.89848 7.19175C4.8837 7.1654 4.87881 7.13464 4.88469 7.105L5.74094 4.4C5.81094 4.05687 5.61844 3.74375 5.21031 3.70375C4.77969 3.70375 4.14594 4.14062 3.76031 4.695C3.76031 4.76125 3.74781 4.92625 3.76094 5.025L4.27406 4.43312C4.38031 4.3225 4.50406 4.24437 4.56656 4.26562C4.59736 4.27668 4.62259 4.29936 4.63684 4.32881C4.6511 4.35825 4.65324 4.39212 4.64281 4.42312L3.79406 7.115C3.69594 7.43 3.88156 7.73875 4.33156 7.80875C4.99406 7.80875 5.38531 7.3825 5.77156 6.82812H5.77094Z" fill="#00AAD8"/>
</g>
<defs>
<clipPath id="clip0_168_1059">
<rect width="10" height="10" fill="white"/>
</clipPath>
</defs>
</svg>
