<svg width="40" height="40" viewBox="0 0 40 40" fill="none" xmlns="http://www.w3.org/2000/svg">
<path d="M27.7252 15.05L28.304 14.47C28.7648 14.009 29.3898 13.75 30.0416 13.7499C30.6935 13.7498 31.3186 14.0086 31.7796 14.4694C32.2406 14.9302 32.4996 15.5553 32.4997 16.2071C32.4998 16.8589 32.241 17.484 31.7802 17.945L31.2015 18.525M27.7252 15.05C27.7252 15.05 27.7977 16.28 28.884 17.3663C29.9702 18.4525 31.2015 18.525 31.2015 18.525M27.7252 15.05L22.4002 20.375C22.0377 20.735 21.8577 20.9163 21.7027 21.115C21.5202 21.35 21.364 21.6025 21.2352 21.8725C21.1265 22.1 21.0465 22.3413 20.8852 22.825L20.369 24.375L20.2015 24.8763M31.2015 18.525L25.8765 23.85C25.514 24.2125 25.334 24.3925 25.1352 24.5475C24.9002 24.73 24.6477 24.8863 24.3777 25.015C24.1502 25.1238 23.909 25.2038 23.4252 25.365L21.8752 25.8813L21.374 26.0488M20.2015 24.8763L20.0352 25.3788C19.9965 25.4954 19.991 25.6205 20.0193 25.7401C20.0476 25.8597 20.1086 25.9691 20.1955 26.056C20.2824 26.1429 20.3918 26.2039 20.5114 26.2322C20.631 26.2605 20.7561 26.255 20.8727 26.2163L21.374 26.0488M20.2015 24.8763L21.374 26.0488" stroke="black" stroke-width="1.5"/>
<path d="M15 21.25H18.125M15 16.25H23.125M15 26.25H16.875M8.75 22.5V17.5C8.75 12.7863 8.75 10.4287 10.215 8.965C11.6787 7.5 14.0363 7.5 18.75 7.5H21.25C25.9637 7.5 28.3212 7.5 29.785 8.965M31.25 22.5C31.25 27.2137 31.25 29.5712 29.785 31.035M29.785 31.035C28.3212 32.5 25.9637 32.5 21.25 32.5H18.75C14.0363 32.5 11.6787 32.5 10.215 31.035M29.785 31.035C30.965 29.8562 31.1937 28.1 31.2387 25" stroke="black" stroke-width="1.5" stroke-linecap="round"/>
</svg>
