<svg width="35" height="35" viewBox="0 0 35 35" fill="none" xmlns="http://www.w3.org/2000/svg">
<path d="M19.5835 27.9166H15.4168C11.4887 27.9166 9.52412 27.9166 8.30433 26.6958C7.0835 25.476 7.0835 23.5114 7.0835 19.5833V17.5C7.0835 13.5718 7.0835 11.6073 8.30433 10.3875C9.52412 9.16663 11.4887 9.16663 15.4168 9.16663H19.5835C23.5116 9.16663 25.4762 9.16663 26.696 10.3875C27.9168 11.6073 27.9168 13.5718 27.9168 17.5V19.5833C27.9168 23.5114 27.9168 25.476 26.696 26.6958C26.0158 27.377 25.1043 27.6781 23.7502 27.8104M12.2918 9.16663V7.60413M22.7085 9.16663V7.60413M27.396 14.375H16.1981M7.0835 14.375H11.12" stroke="black" stroke-width="1.875" stroke-linecap="round"/>
<path d="M23.75 22.7083C23.75 22.9846 23.6403 23.2496 23.4449 23.4449C23.2496 23.6403 22.9846 23.75 22.7083 23.75C22.4321 23.75 22.1671 23.6403 21.9718 23.4449C21.7764 23.2496 21.6667 22.9846 21.6667 22.7083C21.6667 22.4321 21.7764 22.1671 21.9718 21.9718C22.1671 21.7764 22.4321 21.6667 22.7083 21.6667C22.9846 21.6667 23.2496 21.7764 23.4449 21.9718C23.6403 22.1671 23.75 22.4321 23.75 22.7083ZM23.75 18.5417C23.75 18.8179 23.6403 19.0829 23.4449 19.2782C23.2496 19.4736 22.9846 19.5833 22.7083 19.5833C22.4321 19.5833 22.1671 19.4736 21.9718 19.2782C21.7764 19.0829 21.6667 18.8179 21.6667 18.5417C21.6667 18.2654 21.7764 18.0004 21.9718 17.8051C22.1671 17.6097 22.4321 17.5 22.7083 17.5C22.9846 17.5 23.2496 17.6097 23.4449 17.8051C23.6403 18.0004 23.75 18.2654 23.75 18.5417ZM18.5417 22.7083C18.5417 22.9846 18.4319 23.2496 18.2366 23.4449C18.0412 23.6403 17.7763 23.75 17.5 23.75C17.2237 23.75 16.9588 23.6403 16.7634 23.4449C16.5681 23.2496 16.4583 22.9846 16.4583 22.7083C16.4583 22.4321 16.5681 22.1671 16.7634 21.9718C16.9588 21.7764 17.2237 21.6667 17.5 21.6667C17.7763 21.6667 18.0412 21.7764 18.2366 21.9718C18.4319 22.1671 18.5417 22.4321 18.5417 22.7083ZM18.5417 18.5417C18.5417 18.8179 18.4319 19.0829 18.2366 19.2782C18.0412 19.4736 17.7763 19.5833 17.5 19.5833C17.2237 19.5833 16.9588 19.4736 16.7634 19.2782C16.5681 19.0829 16.4583 18.8179 16.4583 18.5417C16.4583 18.2654 16.5681 18.0004 16.7634 17.8051C16.9588 17.6097 17.2237 17.5 17.5 17.5C17.7763 17.5 18.0412 17.6097 18.2366 17.8051C18.4319 18.0004 18.5417 18.2654 18.5417 18.5417ZM13.3333 22.7083C13.3333 22.9846 13.2236 23.2496 13.0282 23.4449C12.8329 23.6403 12.5679 23.75 12.2917 23.75C12.0154 23.75 11.7504 23.6403 11.5551 23.4449C11.3597 23.2496 11.25 22.9846 11.25 22.7083C11.25 22.4321 11.3597 22.1671 11.5551 21.9718C11.7504 21.7764 12.0154 21.6667 12.2917 21.6667C12.5679 21.6667 12.8329 21.7764 13.0282 21.9718C13.2236 22.1671 13.3333 22.4321 13.3333 22.7083ZM13.3333 18.5417C13.3333 18.8179 13.2236 19.0829 13.0282 19.2782C12.8329 19.4736 12.5679 19.5833 12.2917 19.5833C12.0154 19.5833 11.7504 19.4736 11.5551 19.2782C11.3597 19.0829 11.25 18.8179 11.25 18.5417C11.25 18.2654 11.3597 18.0004 11.5551 17.8051C11.7504 17.6097 12.0154 17.5 12.2917 17.5C12.5679 17.5 12.8329 17.6097 13.0282 17.8051C13.2236 18.0004 13.3333 18.2654 13.3333 18.5417Z" fill="black"/>
</svg>
