<svg width="15" height="15" viewBox="0 0 15 15" fill="none" xmlns="http://www.w3.org/2000/svg">
<path d="M8.4375 1.25C8.4375 1.25 9.89625 1.3825 11.7519 3.23875C13.6081 5.095 13.7406 6.55312 13.7406 6.55312M8.87937 3.46C8.87937 3.46 9.49812 3.63625 10.4262 4.56437C11.3544 5.4925 11.5313 6.11125 11.5313 6.11125" stroke="#333333" stroke-linecap="round"/>
<path d="M9.72239 9.09186L9.38239 8.76936L9.72239 9.09249V9.09186ZM11.8761 12.6587L11.5355 12.3356L11.8755 12.6587H11.8761ZM11.0474 13.1025L11.0936 13.5681L11.0474 13.1019V13.1025ZM2.34489 4.32811C2.34157 4.26664 2.32617 4.20642 2.29957 4.1509C2.27298 4.09537 2.2357 4.04563 2.18988 4.00451C2.14406 3.96339 2.09059 3.9317 2.03253 3.91125C1.97446 3.89079 1.91293 3.88198 1.85146 3.8853C1.78998 3.88862 1.72976 3.90402 1.67424 3.93062C1.61872 3.95722 1.56897 3.99449 1.52785 4.04031C1.48674 4.08613 1.45504 4.1396 1.43459 4.19767C1.41414 4.25573 1.40532 4.31726 1.40864 4.37874L2.34489 4.32811ZM2.94864 1.93249C2.86656 2.0232 2.82319 2.14241 2.8278 2.26466C2.83241 2.38691 2.88463 2.50251 2.97331 2.58679C3.06199 2.67106 3.1801 2.71733 3.30243 2.71571C3.42476 2.71409 3.5416 2.66471 3.62802 2.57811L2.94864 1.93249ZM6.66489 12.3825C6.71702 12.4161 6.77529 12.439 6.83633 12.4499C6.89737 12.4608 6.95997 12.4595 7.0205 12.4461C7.08104 12.4326 7.1383 12.4073 7.18897 12.3715C7.23965 12.3358 7.28273 12.2904 7.31572 12.2379C7.34871 12.1854 7.37096 12.1268 7.38117 12.0657C7.39138 12.0045 7.38936 11.9419 7.37521 11.8815C7.36107 11.8212 7.33508 11.7642 7.29877 11.7139C7.26245 11.6637 7.21652 11.6211 7.16364 11.5887L6.66489 12.3825ZM9.44552 12.5362C9.32377 12.5108 9.19689 12.5348 9.09281 12.6029C8.98873 12.671 8.91596 12.7776 8.89052 12.8994C8.86507 13.0211 8.88904 13.148 8.95714 13.2521C9.02524 13.3562 9.13189 13.4289 9.25364 13.4544L9.44552 12.5362ZM9.77802 9.71499L10.0624 9.41499L9.38239 8.76936L9.09802 9.06936L9.77802 9.71499ZM10.9993 9.28874L12.193 9.97624L12.6605 9.16374L11.4668 8.47624L10.9993 9.28874ZM12.4236 11.4012L11.5355 12.3356L12.2155 12.9819L13.103 12.0469L12.4236 11.4012ZM5.22427 9.97436C2.80177 7.42374 2.39552 5.27186 2.34489 4.32811L1.40864 4.37874C1.47114 5.53499 1.96114 7.89999 4.54489 10.62L5.22427 9.97436ZM6.08427 5.82624L6.26302 5.63749L5.58364 4.99186L5.40427 5.18061L6.08427 5.82624ZM6.40427 3.28749L5.61614 2.17311L4.85052 2.71436L5.63802 3.82874L6.40427 3.28749ZM5.74364 5.50311C5.63116 5.39471 5.51761 5.28741 5.40302 5.18124L5.40177 5.18249L5.39989 5.18436C5.3888 5.19584 5.37836 5.20795 5.36864 5.22061C5.30738 5.30171 5.2589 5.39171 5.22489 5.48749C5.16364 5.65936 5.13114 5.88686 5.17239 6.17061C5.25364 6.72811 5.61927 7.47749 6.57364 8.48311L7.25364 7.83686C6.36114 6.89749 6.14114 6.31936 6.09989 6.03436C6.07989 5.89686 6.09989 5.82499 6.10802 5.80186L6.11302 5.78999C6.10791 5.79822 6.10205 5.80596 6.09552 5.81311C6.09186 5.81736 6.0881 5.82215 6.08427 5.82624L5.74364 5.50311ZM6.57364 8.48249C7.52552 9.48499 8.24427 9.87874 8.79239 9.96811C9.07427 10.0137 9.30239 9.97686 9.47489 9.90874C9.57047 9.87122 9.65933 9.81845 9.73802 9.75249L9.76052 9.73124L9.76927 9.72249C9.77074 9.72126 9.7722 9.72001 9.77364 9.71874L9.77552 9.71686L9.77614 9.71561C9.77614 9.71561 9.77739 9.71499 9.43739 9.39186C9.09739 9.06936 9.09802 9.06874 9.09802 9.06811L9.09927 9.06749L9.10052 9.06561L9.10427 9.06249C9.11372 9.05336 9.12352 9.0446 9.13364 9.03624C9.13927 9.03249 9.13864 9.03374 9.13052 9.03686C9.11802 9.04186 9.06177 9.06186 8.94302 9.04249C8.69177 9.00124 8.14927 8.77999 7.25364 7.83686L6.57364 8.48249ZM5.61614 2.17311C4.98239 1.27686 3.71489 1.12499 2.94864 1.93249L3.62802 2.57811C3.95489 2.23436 4.53052 2.26124 4.85052 2.71436L5.61614 2.17311ZM11.5355 12.3356C11.3611 12.5194 11.1793 12.6181 11.0018 12.6356L11.0936 13.5681C11.5605 13.5225 11.9386 13.2737 12.2155 12.9819L11.5355 12.3362V12.3356ZM6.26302 5.63749C6.86802 5.00061 6.91052 4.00436 6.40427 3.28749L5.63864 3.82874C5.90239 4.20186 5.86177 4.69936 5.58364 4.99186L6.26302 5.63749ZM12.193 9.97624C12.7061 10.2719 12.8068 10.9981 12.4236 11.4012L13.103 12.0469C13.9186 11.1881 13.6805 9.75124 12.6605 9.16374L12.193 9.97624ZM10.0624 9.41499C10.303 9.16124 10.6786 9.10436 10.9993 9.28874L11.4668 8.47624C10.7799 8.08124 9.92927 8.19436 9.38239 8.76936L10.0624 9.41499ZM7.16364 11.5887C6.54927 11.2025 5.89489 10.68 5.22427 9.97436L4.54489 10.62C5.26614 11.3794 5.98052 11.9525 6.66489 12.3825L7.16364 11.5887ZM11.0011 12.6356C10.4806 12.6813 9.95605 12.6478 9.44552 12.5362L9.25364 13.4544C9.85768 13.5852 10.4781 13.6236 11.0936 13.5681L11.0018 12.6356H11.0011Z" fill="#333333"/>
</svg>
