<svg width="15" height="15" viewBox="0 0 15 15" fill="none" xmlns="http://www.w3.org/2000/svg">
<path fill-rule="evenodd" clip-rule="evenodd" d="M2 3.71422V10.5714C2 11.026 2.18061 11.4621 2.5021 11.7836C2.82359 12.105 3.25963 12.2857 3.71429 12.2857H12.2857C12.7404 12.2857 13.1764 12.105 13.4979 11.7836C13.8194 11.4621 14 11.026 14 10.5714V3.71422C14 3.25957 13.8194 2.82353 13.4979 2.50204C13.1764 2.18055 12.7404 1.99994 12.2857 1.99994H3.71429C3.25963 1.99994 2.82359 2.18055 2.5021 2.50204C2.18061 2.82353 2 3.25957 2 3.71422Z" stroke="#333333" stroke-linecap="round" stroke-linejoin="round"/>
<path d="M3.71436 4.57159L8.00007 7.14302L12.2858 4.57159" stroke="#333333" stroke-linecap="round" stroke-linejoin="round"/>
</svg>
