<svg width="30" height="30" viewBox="0 0 30 30" fill="none" xmlns="http://www.w3.org/2000/svg">
<path d="M3.94736 17.4125C3.51021 16.6837 3.2793 15.8498 3.2793 15C3.2793 14.1502 3.51021 13.3163 3.94736 12.5875C4.08179 12.3631 4.26167 12.1694 4.47544 12.0187C4.6892 11.868 4.93213 11.7637 5.18861 11.7125L7.30486 11.2887C7.43107 11.2638 7.5449 11.1963 7.62736 11.0975L10.2124 7.99375C11.6899 6.21875 12.4299 5.3325 13.0886 5.57125C13.7499 5.81 13.7499 6.965 13.7499 9.275V20.7275C13.7499 23.0362 13.7499 24.19 13.0899 24.43C12.4311 24.6675 11.6911 23.7812 10.2136 22.0075L7.62486 18.9025C7.54272 18.804 7.42937 18.7365 7.30361 18.7112L5.18736 18.2875C4.93088 18.2363 4.68795 18.132 4.47419 17.9813C4.26042 17.8306 4.08179 17.6369 3.94736 17.4125Z" stroke="black" stroke-width="2"/>
<path d="M19.4199 10.58C20.5862 11.7462 21.2442 13.3262 21.2505 14.9755C21.2569 16.6249 20.611 18.2099 19.4537 19.385M24.5712 7.92875C26.4372 9.79458 27.4901 12.3224 27.5004 14.9612C27.5107 17.6 26.4776 20.1359 24.6262 22.0162" stroke="black" stroke-width="2" stroke-linecap="round"/>
</svg>
