<svg width="30" height="30" viewBox="0 0 30 30" fill="none" xmlns="http://www.w3.org/2000/svg">
<path d="M15 7.3175V26.25" stroke="black" stroke-width="2.1875"/>
<path d="M6.25 11.25L11.25 12.5M6.25 16.25L11.25 17.5M23.75 16.25L18.75 17.5M23.75 6.875V11.8875C23.75 12.2325 23.75 12.405 23.6313 12.475C23.5125 12.5437 23.3513 12.4663 23.0263 12.3125L21.4738 11.575C21.3638 11.5225 21.3088 11.4975 21.25 11.4975C21.1913 11.4975 21.1363 11.5225 21.0263 11.575L19.4738 12.3125C19.1488 12.4663 18.9863 12.5437 18.8688 12.475C18.75 12.4037 18.75 12.2313 18.75 11.8875V8.6875" stroke="black" stroke-width="2.1875" stroke-linecap="round"/>
<path d="M20.625 4.36L20.3563 3.46V3.46125L20.625 4.36ZM28.4375 13.1725C28.4375 12.9239 28.3387 12.6854 28.1629 12.5096C27.9871 12.3338 27.7486 12.235 27.5 12.235C27.2514 12.235 27.0129 12.3338 26.8371 12.5096C26.6613 12.6854 26.5625 12.9239 26.5625 13.1725H28.4375ZM26.5625 8.75C26.5625 8.99864 26.6613 9.2371 26.8371 9.41291C27.0129 9.58873 27.2514 9.6875 27.5 9.6875C27.7486 9.6875 27.9871 9.58873 28.1629 9.41291C28.3387 9.2371 28.4375 8.99864 28.4375 8.75H26.5625ZM1.5625 13.2125C1.5625 13.4611 1.66127 13.6996 1.83709 13.8754C2.0129 14.0512 2.25136 14.15 2.5 14.15C2.74864 14.15 2.9871 14.0512 3.16291 13.8754C3.33873 13.6996 3.4375 13.4611 3.4375 13.2125H1.5625ZM3.4375 17.5C3.4375 17.2514 3.33873 17.0129 3.16291 16.8371C2.9871 16.6613 2.74864 16.5625 2.5 16.5625C2.25136 16.5625 2.0129 16.6613 1.83709 16.8371C1.66127 17.0129 1.5625 17.2514 1.5625 17.5H3.4375ZM25.07 2.835C23.6463 2.885 21.7875 3.0325 20.3563 3.46125L20.8938 5.2575C22.0813 4.9025 23.7363 4.75875 25.135 4.71L25.07 2.835ZM20.3563 3.46125C19.1125 3.83375 17.7138 4.56 16.6225 5.19125L17.5625 6.815C18.625 6.2 19.8688 5.565 20.8938 5.2575L20.3563 3.46125ZM4.92 4.77875C6.1275 4.85375 7.495 4.9975 8.51125 5.26625L8.98875 3.4525C7.78875 3.135 6.26875 2.98375 5.035 2.9075L4.92 4.77875ZM8.51125 5.26625C9.71375 5.58375 11.1938 6.2775 12.415 6.9225L13.29 5.265C12.0463 4.6075 10.4088 3.8275 8.98875 3.4525L8.51125 5.26625ZM17.475 25.9125C18.7138 25.2525 20.2488 24.525 21.4888 24.1963L21.0113 22.3838C19.5488 22.77 17.8538 23.5863 16.5938 24.2588L17.475 25.9125ZM21.4888 24.1963C22.4925 23.9325 23.8413 23.7875 25.04 23.7125L24.9225 21.8413C23.6975 21.9188 22.2 22.07 21.0113 22.3838L21.4888 24.1963ZM13.4063 24.2588C12.1463 23.5863 10.4525 22.77 8.98875 22.3838L8.51125 24.1963C9.75125 24.5238 11.2863 25.2525 12.5238 25.9125L13.4063 24.2588ZM8.98875 22.3838C7.80125 22.0713 6.30125 21.9188 5.07625 21.8413L4.96 23.7125C6.15875 23.7875 7.50875 23.9325 8.51125 24.1963L8.98875 22.3838ZM26.5625 20.1788C26.5625 21.035 25.8525 21.7838 24.9225 21.8413L25.04 23.7125C26.8825 23.5975 28.4375 22.0988 28.4375 20.1788H26.5625ZM28.4375 6.16625C28.4375 4.33625 26.9813 2.76875 25.07 2.835L25.135 4.71C25.9038 4.6825 26.5625 5.31375 26.5625 6.165L28.4375 6.16625ZM1.5625 20.1788C1.5625 22.0988 3.1175 23.5975 4.96 23.7125L5.07625 21.8413C4.14625 21.7838 3.4375 21.035 3.4375 20.1788H1.5625ZM16.5938 24.2588C16.1028 24.5188 15.5556 24.6535 15 24.6535C14.4444 24.6535 13.8972 24.5188 13.4063 24.2588L12.525 25.9125C13.2873 26.317 14.1371 26.5285 15 26.5285C15.8629 26.5285 16.7127 26.317 17.475 25.9125L16.5938 24.2588ZM16.6225 5.19125C16.1181 5.48254 15.5485 5.64189 14.9662 5.65456C14.3839 5.66723 13.8078 5.53282 13.2913 5.26375L12.415 6.9225C13.2125 7.34011 14.1026 7.54799 15.0026 7.52919C15.9026 7.5104 16.7832 7.26554 17.5625 6.815L16.6225 5.19125ZM3.4375 6.2475C3.4375 5.37625 4.1275 4.73125 4.92 4.77875L5.035 2.9075C3.0875 2.78875 1.5625 4.375 1.5625 6.2475H3.4375ZM28.4375 20.1788V13.1725H26.5625V20.1788H28.4375ZM28.4375 8.75V6.16625L26.5625 6.165V8.75H28.4375ZM3.4375 13.2125V6.2475H1.5625V13.215H3.4375V13.2125ZM3.4375 20.1788V17.5H1.5625V20.1788H3.4375Z" fill="black"/>
</svg>
