<svg width="35" height="35" viewBox="0 0 35 35" fill="none" xmlns="http://www.w3.org/2000/svg">
<path d="M10.7295 21.1459C10.7295 20.1636 10.7295 19.6729 11.0347 19.3677C11.3399 19.0625 11.8305 19.0625 12.8128 19.0625H13.8545C14.8368 19.0625 15.3274 19.0625 15.6326 19.3677C15.9378 19.6729 15.9378 20.1636 15.9378 21.1459V22.1875C15.9378 23.1698 15.9378 23.6604 15.6326 23.9656C15.3274 24.2709 14.8368 24.2709 13.8545 24.2709C12.3816 24.2709 11.6451 24.2709 11.1878 23.8125C10.7295 23.3552 10.7295 22.6188 10.7295 21.1459ZM10.7295 13.8542C10.7295 12.3813 10.7295 11.6448 11.1878 11.1875C11.6451 10.7292 12.3816 10.7292 13.8545 10.7292C14.8368 10.7292 15.3274 10.7292 15.6326 11.0344C15.9378 11.3396 15.9378 11.8302 15.9378 12.8125V13.8542C15.9378 14.8365 15.9378 15.3271 15.6326 15.6323C15.3274 15.9375 14.8368 15.9375 13.8545 15.9375H12.8128C11.8305 15.9375 11.3399 15.9375 11.0347 15.6323C10.7295 15.3271 10.7295 14.8365 10.7295 13.8542ZM19.0628 21.1459C19.0628 20.1636 19.0628 19.6729 19.368 19.3677C19.6732 19.0625 20.1639 19.0625 21.1462 19.0625H22.1878C23.1701 19.0625 23.6607 19.0625 23.966 19.3677C24.2712 19.6729 24.2712 20.1636 24.2712 21.1459C24.2712 22.6188 24.2712 23.3552 23.8128 23.8125C23.3555 24.2709 22.6191 24.2709 21.1462 24.2709C20.1639 24.2709 19.6732 24.2709 19.368 23.9656C19.0628 23.6604 19.0628 23.1698 19.0628 22.1875V21.1459ZM19.0628 12.8125C19.0628 11.8302 19.0628 11.3396 19.368 11.0344C19.6732 10.7292 20.1639 10.7292 21.1462 10.7292C22.6191 10.7292 23.3555 10.7292 23.8128 11.1875C24.2712 11.6448 24.2712 12.3813 24.2712 13.8542C24.2712 14.8365 24.2712 15.3271 23.966 15.6323C23.6607 15.9375 23.1701 15.9375 22.1878 15.9375H21.1462C20.1639 15.9375 19.6732 15.9375 19.368 15.6323C19.0628 15.3271 19.0628 14.8365 19.0628 13.8542V12.8125Z" stroke="black" stroke-width="1.5"/>
<path d="M27.9168 19.5833C27.9168 23.5115 27.9168 25.4761 26.696 26.6958C25.4762 27.9167 23.5116 27.9167 19.5835 27.9167M15.4168 27.9167C11.4887 27.9167 9.52412 27.9167 8.30433 26.6958C7.0835 25.4761 7.0835 23.5115 7.0835 19.5833M15.4168 7.08334C11.4887 7.08334 9.52412 7.08334 8.30433 8.30418C7.0835 9.52397 7.0835 11.4886 7.0835 15.4167M19.5835 7.08334C23.5116 7.08334 25.4762 7.08334 26.696 8.30418C27.9168 9.52397 27.9168 11.4886 27.9168 15.4167" stroke="black" stroke-width="1.5" stroke-linecap="round"/>
</svg>
