<svg width="30" height="30" viewBox="0 0 30 30" fill="none" xmlns="http://www.w3.org/2000/svg">
<path d="M18.75 15H2.5M2.5 15L6.875 11.25M2.5 15L6.875 18.75" stroke="black" stroke-width="1.5" stroke-linecap="round" stroke-linejoin="round"/>
<path d="M11.2529 8.75C11.2679 6.03125 11.3892 4.55875 12.3492 3.59875C13.4479 2.5 15.2154 2.5 18.7504 2.5H20.0004C23.5367 2.5 25.3042 2.5 26.4029 3.59875C27.5004 4.69625 27.5004 6.465 27.5004 10V20C27.5004 23.535 27.5004 25.3038 26.4029 26.4013C25.4417 27.3625 23.9692 27.4825 21.2504 27.4975M11.2529 21.25C11.2679 23.9687 11.3892 25.4413 12.3492 26.4013C13.1504 27.2038 14.3092 27.42 16.2504 27.4787" stroke="black" stroke-width="1.5" stroke-linecap="round"/>
</svg>
