<svg width="92" height="92" viewBox="0 0 92 92" fill="none" xmlns="http://www.w3.org/2000/svg">
<path d="M92 46C92 71.4051 71.4051 92 46 92C20.5949 92 0 71.4051 0 46C0 20.5949 20.5949 0 46 0C71.4051 0 92 20.5949 92 46ZM2.8014 46C2.8014 69.8579 22.1421 89.1986 46 89.1986C69.8579 89.1986 89.1986 69.8579 89.1986 46C89.1986 22.1421 69.8579 2.8014 46 2.8014C22.1421 2.8014 2.8014 22.1421 2.8014 46Z" fill="#40D6FF"/>
<path d="M46.7818 1.40748C46.7954 0.63401 46.1792 -0.00623264 45.4057 0.00376296C39.7565 0.0767427 34.165 1.18988 28.9122 3.29152C23.2257 5.56672 18.0507 8.95465 13.691 13.2565C9.33125 17.5584 5.87452 22.6877 3.52357 28.3434C1.17263 33.999 -0.0251957 40.0672 0.000382922 46.192C0.0259615 52.3168 1.27442 58.3748 3.67252 64.0106C6.07062 69.6465 9.57007 74.7467 13.9656 79.012C18.3611 83.2773 23.5641 86.6219 29.2695 88.8496C34.5396 90.9073 40.1403 91.9736 45.7898 91.9994C46.5634 92.003 47.1742 91.3576 47.1542 90.5843C47.1342 89.811 46.4909 89.2027 45.7173 89.1976C40.4408 89.1631 35.211 88.162 30.2884 86.24C24.9305 84.148 20.0443 81.0071 15.9165 77.0016C11.7887 72.996 8.50232 68.2064 6.25026 62.9138C3.99821 57.6212 2.82578 51.9321 2.80176 46.1803C2.77774 40.4285 3.90261 34.7299 6.11038 29.4186C8.31816 24.1074 11.5644 19.2905 15.6586 15.2506C19.7528 11.2107 24.6126 8.02911 29.9529 5.89245C34.8593 3.92938 40.0805 2.8847 45.3566 2.80611C46.13 2.79459 46.7682 2.18094 46.7818 1.40748Z" fill="black"/>
<circle cx="46" cy="46" r="34" fill="#00AAD8"/>
<path d="M39.5833 46L52.4166 46" stroke="white" stroke-width="2" stroke-linecap="round" stroke-linejoin="round"/>
<path d="M46 39.5833L52.4167 46L46 52.4167" stroke="white" stroke-width="2" stroke-linecap="round" stroke-linejoin="round"/>
</svg>
