<svg width="30" height="30" viewBox="0 0 30 30" fill="none" xmlns="http://www.w3.org/2000/svg">
<path d="M23.75 10C25.8211 10 27.5 8.32107 27.5 6.25C27.5 4.17893 25.8211 2.5 23.75 2.5C21.6789 2.5 20 4.17893 20 6.25C20 8.32107 21.6789 10 23.75 10Z" stroke="black" stroke-width="1.5"/>
<path d="M8.75 17.5H20M8.75 21.875H16.25M2.5 15C2.5 20.8925 2.5 23.8387 4.33 25.6687C6.1625 27.5 9.1075 27.5 15 27.5C20.8925 27.5 23.8387 27.5 25.6687 25.6687C27.5 23.84 27.5 20.8925 27.5 15V13.125M16.875 2.5H15C9.1075 2.5 6.16125 2.5 4.33 4.33C3.11375 5.5475 2.705 7.25875 2.56875 10" stroke="black" stroke-width="2" stroke-linecap="round"/>
</svg>
