<svg width="50" height="50" viewBox="0 0 50 50" fill="none" xmlns="http://www.w3.org/2000/svg">
<path fill-rule="evenodd" clip-rule="evenodd" d="M22.8 2.60417H27.2C31.0292 2.60417 34.0625 2.60417 36.4354 2.92292C38.8771 3.25209 40.8542 3.94376 42.4146 5.50209C42.6906 5.79829 42.8408 6.19005 42.8337 6.59484C42.8266 6.99964 42.6626 7.38586 42.3763 7.67213C42.09 7.95841 41.7038 8.12239 41.299 8.12954C40.8942 8.13668 40.5024 7.98642 40.2062 7.71042C39.3229 6.83125 38.1146 6.30209 36.0187 6.02084C33.8792 5.73334 31.0562 5.72917 27.0833 5.72917H22.9167C18.9437 5.72917 16.1229 5.73334 13.9792 6.02084C11.8854 6.30209 10.6771 6.83125 9.79583 7.7125C8.91458 8.59375 8.38542 9.80209 8.10417 11.8979C7.81667 14.0396 7.8125 16.8604 7.8125 20.8333V29.1667C7.8125 33.1396 7.81667 35.9625 8.10417 38.1042C8.38542 40.1979 8.91458 41.4063 9.79583 42.2875C10.6771 43.1688 11.8854 43.6979 13.9812 43.9792C16.1229 44.2667 18.9437 44.2708 22.9167 44.2708H27.0833C31.0562 44.2708 33.8792 44.2667 36.0208 43.9792C38.1146 43.6979 39.3229 43.1688 40.2042 42.2875C41.6542 40.8375 42.0937 38.5854 42.1687 33.3104C42.1748 32.896 42.3453 32.501 42.6426 32.2123C42.9399 31.9235 43.3398 31.7648 43.7542 31.7708C44.1686 31.7769 44.5636 31.9474 44.8523 32.2447C45.141 32.542 45.2998 32.9419 45.2937 33.3563C45.2208 38.4125 44.8937 42.0187 42.4146 44.4979C40.8542 46.0563 38.8771 46.7479 36.4354 47.0771C34.0604 47.3958 31.0292 47.3958 27.2 47.3958H22.8C18.9708 47.3958 15.9375 47.3958 13.5646 47.0771C11.1229 46.7479 9.14583 46.0563 7.58542 44.4979C6.02708 42.9375 5.33542 40.9604 5.00625 38.5188C4.6875 36.1438 4.6875 33.1125 4.6875 29.2833V20.7167C4.6875 16.8875 4.6875 13.8542 5.00625 11.4813C5.33542 9.03959 6.02708 7.0625 7.58542 5.50209C9.14583 3.94376 11.1229 3.25209 13.5646 2.92292C15.9396 2.60417 18.9708 2.60417 22.8 2.60417ZM37.7375 14.6792C38.2583 14.134 38.8828 13.6984 39.5743 13.398C40.2658 13.0976 41.0104 12.9383 41.7643 12.9297C42.5182 12.9211 43.2662 13.0632 43.9644 13.3478C44.6626 13.6323 45.2969 14.0535 45.83 14.5866C46.3631 15.1198 46.7843 15.7541 47.0689 16.4523C47.3534 17.1505 47.4956 17.8985 47.4869 18.6524C47.4783 19.4063 47.3191 20.1509 47.0187 20.8424C46.7183 21.5339 46.2827 22.1584 45.7375 22.6792L35.8333 32.5896C35.4213 33.0237 34.9829 33.4321 34.5208 33.8125C34.0417 34.1875 33.5208 34.5083 32.9708 34.7708C32.5042 34.9938 32.0125 35.1563 31.2917 35.3958L26.95 36.8438C26.4799 37.0011 25.9752 37.0242 25.4927 36.9106C25.0101 36.7969 24.5688 36.551 24.2182 36.2005C23.8677 35.85 23.6218 35.4086 23.5082 34.9261C23.3946 34.4435 23.4177 33.9389 23.575 33.4688L24.9937 29.2188L25.0229 29.1292C25.2646 28.4063 25.4271 27.9167 25.65 27.45C25.9123 26.9001 26.2336 26.3804 26.6083 25.9C26.9271 25.4917 27.2917 25.1271 27.8312 24.5875L27.8958 24.5229L37.7375 14.6792ZM43.5292 16.8875C43.2939 16.6522 43.0146 16.4655 42.7072 16.3381C42.3998 16.2107 42.0703 16.1452 41.7375 16.1452C41.4047 16.1452 41.0752 16.2107 40.7678 16.3381C40.4604 16.4655 40.1811 16.6522 39.9458 16.8875L39.5667 17.2667C39.5875 17.3354 39.6104 17.4125 39.6375 17.4896C39.8333 18.0521 40.2062 18.8021 40.9104 19.5063C41.5337 20.1334 42.3034 20.5952 43.15 20.85L43.5292 20.4708C43.7645 20.2356 43.9512 19.9563 44.0786 19.6488C44.2059 19.3414 44.2715 19.0119 44.2715 18.6792C44.2715 18.3464 44.2059 18.0169 44.0786 17.7095C43.9512 17.4021 43.7645 17.1228 43.5292 16.8875ZM40.7625 23.2375C40.0021 22.8376 39.3068 22.3249 38.7 21.7167C38.0918 21.1099 37.5791 20.4145 37.1792 19.6542L30.1042 26.7292C29.4771 27.3563 29.2563 27.5813 29.0708 27.8188C28.8354 28.1208 28.6333 28.4479 28.4687 28.7917C28.3396 29.0646 28.2375 29.3625 27.9562 30.2042L27.1229 32.7042L27.7125 33.2938L30.2125 32.4604C31.0542 32.1792 31.3521 32.0771 31.625 31.9479C31.9688 31.7813 32.2958 31.5813 32.5979 31.3458C32.8354 31.1604 33.0604 30.9396 33.6875 30.3125L40.7625 23.2375ZM15.1042 18.75C15.1042 18.3356 15.2688 17.9382 15.5618 17.6452C15.8548 17.3521 16.2523 17.1875 16.6667 17.1875H30.2083C30.6227 17.1875 31.0202 17.3521 31.3132 17.6452C31.6062 17.9382 31.7708 18.3356 31.7708 18.75C31.7708 19.1644 31.6062 19.5618 31.3132 19.8549C31.0202 20.1479 30.6227 20.3125 30.2083 20.3125H16.6667C16.2523 20.3125 15.8548 20.1479 15.5618 19.8549C15.2688 19.5618 15.1042 19.1644 15.1042 18.75ZM15.1042 27.0833C15.1042 26.6689 15.2688 26.2715 15.5618 25.9785C15.8548 25.6855 16.2523 25.5208 16.6667 25.5208H21.875C22.2894 25.5208 22.6868 25.6855 22.9799 25.9785C23.2729 26.2715 23.4375 26.6689 23.4375 27.0833C23.4375 27.4977 23.2729 27.8952 22.9799 28.1882C22.6868 28.4812 22.2894 28.6458 21.875 28.6458H16.6667C16.2523 28.6458 15.8548 28.4812 15.5618 28.1882C15.2688 27.8952 15.1042 27.4977 15.1042 27.0833ZM15.1042 35.4167C15.1042 35.0023 15.2688 34.6048 15.5618 34.3118C15.8548 34.0188 16.2523 33.8542 16.6667 33.8542H19.7917C20.2061 33.8542 20.6035 34.0188 20.8965 34.3118C21.1895 34.6048 21.3542 35.0023 21.3542 35.4167C21.3542 35.8311 21.1895 36.2285 20.8965 36.5215C20.6035 36.8146 20.2061 36.9792 19.7917 36.9792H16.6667C16.2523 36.9792 15.8548 36.8146 15.5618 36.5215C15.2688 36.2285 15.1042 35.8311 15.1042 35.4167Z" fill="#E3F9FF"/>
</svg>
