<svg width="20" height="20" viewBox="0 0 20 20" fill="none" xmlns="http://www.w3.org/2000/svg">
<g clip-path="url(#clip0_22_171)">
<path d="M7.50016 13.3333C7.50016 13.5543 7.41237 13.7663 7.25608 13.9226C7.0998 14.0789 6.88784 14.1667 6.66683 14.1667C6.44582 14.1667 6.23385 14.0789 6.07757 13.9226C5.92129 13.7663 5.8335 13.5543 5.8335 13.3333C5.8335 13.1123 5.92129 12.9004 6.07757 12.7441C6.23385 12.5878 6.44582 12.5 6.66683 12.5C6.88784 12.5 7.0998 12.5878 7.25608 12.7441C7.41237 12.9004 7.50016 13.1123 7.50016 13.3333ZM10.8335 13.3333C10.8335 13.5543 10.7457 13.7663 10.5894 13.9226C10.4331 14.0789 10.2212 14.1667 10.0002 14.1667C9.77915 14.1667 9.56719 14.0789 9.41091 13.9226C9.25463 13.7663 9.16683 13.5543 9.16683 13.3333C9.16683 13.1123 9.25463 12.9004 9.41091 12.7441C9.56719 12.5878 9.77915 12.5 10.0002 12.5C10.2212 12.5 10.4331 12.5878 10.5894 12.7441C10.7457 12.9004 10.8335 13.1123 10.8335 13.3333ZM14.1668 13.3333C14.1668 13.5543 14.079 13.7663 13.9228 13.9226C13.7665 14.0789 13.5545 14.1667 13.3335 14.1667C13.1125 14.1667 12.9005 14.0789 12.7442 13.9226C12.588 13.7663 12.5002 13.5543 12.5002 13.3333C12.5002 13.1123 12.588 12.9004 12.7442 12.7441C12.9005 12.5878 13.1125 12.5 13.3335 12.5C13.5545 12.5 13.7665 12.5878 13.9228 12.7441C14.079 12.9004 14.1668 13.1123 14.1668 13.3333Z" fill="#858585"/>
<path d="M5.00008 8.33333V6.66666C5.00008 6.38333 5.02341 6.10416 5.06925 5.83333M15.0001 8.33333V6.66666C15.0001 5.65103 14.6909 4.65946 14.1135 3.82391C13.5362 2.98836 12.718 2.34845 11.768 1.98934C10.818 1.63023 9.78111 1.56895 8.79539 1.81365C7.80968 2.05835 6.92186 2.59744 6.25008 3.35916M9.16675 18.3333H6.66675C4.31008 18.3333 3.13091 18.3333 2.39925 17.6008C1.66675 16.8692 1.66675 15.69 1.66675 13.3333C1.66675 10.9767 1.66675 9.7975 2.39925 9.06583C3.13091 8.33333 4.31008 8.33333 6.66675 8.33333H13.3334C15.6901 8.33333 16.8692 8.33333 17.6009 9.06583C18.3334 9.7975 18.3334 10.9767 18.3334 13.3333C18.3334 15.69 18.3334 16.8692 17.6009 17.6008C16.8692 18.3333 15.6901 18.3333 13.3334 18.3333H12.5001" stroke="#858585" stroke-width="1.5" stroke-linecap="round"/>
</g>
<defs>
<clipPath id="clip0_22_171">
<rect width="20" height="20" fill="white"/>
</clipPath>
</defs>
</svg>
