<svg width="92" height="92" viewBox="0 0 92 92" fill="none" xmlns="http://www.w3.org/2000/svg">
<path d="M92 46C92 71.4051 71.4051 92 46 92C20.5949 92 0 71.4051 0 46C0 20.5949 20.5949 0 46 0C71.4051 0 92 20.5949 92 46ZM2.8014 46C2.8014 69.8579 22.1421 89.1986 46 89.1986C69.8579 89.1986 89.1986 69.8579 89.1986 46C89.1986 22.1421 69.8579 2.8014 46 2.8014C22.1421 2.8014 2.8014 22.1421 2.8014 46Z" fill="#40D6FF"/>
<path d="M1.68175 41.0008C0.913036 40.914 0.217348 41.4669 0.154078 42.2379C-0.324969 48.0756 0.315021 53.9557 2.04433 59.5609C3.91139 65.6127 7.00799 71.2137 11.1402 76.0131C15.2723 80.8126 20.3511 84.7071 26.0582 87.4526C31.3443 89.9956 37.064 91.5022 42.9081 91.8959C43.6799 91.9479 44.33 91.3421 44.3585 90.569C44.3869 89.7959 43.783 89.1485 43.0113 89.095C37.5527 88.7165 32.2112 87.3039 27.2727 84.9282C21.9131 82.3498 17.1437 78.6925 13.2631 74.1853C9.3826 69.6782 6.47458 64.4183 4.72123 58.735C3.10563 53.4984 2.50246 48.0063 2.9392 42.552C3.00095 41.7809 2.45046 41.0875 1.68175 41.0008Z" fill="black"/>
<circle cx="46" cy="46" r="34" fill="#00AAD8"/>
<path d="M39.5834 46L52.4167 46" stroke="white" stroke-width="2" stroke-linecap="round" stroke-linejoin="round"/>
<path d="M46 39.5833L52.4167 46L46 52.4167" stroke="white" stroke-width="2" stroke-linecap="round" stroke-linejoin="round"/>
</svg>
