<svg width="50" height="50" viewBox="0 0 50 50" fill="none" xmlns="http://www.w3.org/2000/svg">
<path d="M2.60425 21.875C2.60425 22.2894 2.76887 22.6868 3.06189 22.9799C3.35492 23.2729 3.75235 23.4375 4.16675 23.4375C4.58115 23.4375 4.97858 23.2729 5.2716 22.9799C5.56463 22.6868 5.72925 22.2894 5.72925 21.875H2.60425ZM6.40425 32.5542C6.24567 32.1713 5.94148 31.8671 5.55859 31.7084C5.17571 31.5498 4.74549 31.5498 4.36258 31.7084C3.97968 31.8669 3.67545 32.1711 3.51682 32.554C3.3582 32.9369 3.35817 33.3671 3.51675 33.75L6.40425 32.5542ZM28.6084 45.3542L29.7376 43.4459L27.0501 41.8542L25.9188 43.7625L28.6084 45.3542ZM20.2626 43.4459L21.3917 45.3542L24.0792 43.7625L22.9522 41.8542L20.2626 43.4459ZM25.9188 43.7625C25.8215 43.9184 25.686 44.0469 25.5253 44.136C25.3646 44.2251 25.1838 44.2718 25.0001 44.2718C24.8163 44.2718 24.6356 44.2251 24.4748 44.136C24.3141 44.0469 24.1787 43.9184 24.0813 43.7625L21.3917 45.3542C23.0022 48.0771 26.9959 48.0771 28.6084 45.3542L25.9209 43.7625H25.9188ZM21.8751 5.72919H28.1251V2.60419H21.8751V5.72919ZM44.2709 21.875V23.9584H47.3959V21.875H44.2709ZM16.2563 38.0042C13.6397 37.9584 12.2688 37.7917 11.1938 37.3459L10.0001 40.2334C11.6772 40.9292 13.5855 41.0854 16.2022 41.1313L16.2563 38.0042ZM3.51675 33.75C4.11876 35.2035 5.00117 36.5241 6.11358 37.6365C7.226 38.7489 8.54663 39.6313 10.0001 40.2334L11.1938 37.3459C9.02441 36.4472 7.30289 34.7236 6.40425 32.5542L3.51675 33.75ZM44.2709 23.9584C44.2709 26.4063 44.2709 28.1646 44.1751 29.5521C44.0813 30.925 43.9022 31.8209 43.598 32.5542L46.4834 33.75C46.973 32.5709 47.1876 31.2959 47.2938 29.7646C47.398 28.2459 47.3959 26.3646 47.3959 23.9584H44.2709ZM33.798 41.1271C36.4147 41.0834 38.323 40.9292 40.0001 40.2334L38.8042 37.3459C37.7313 37.7917 36.3605 37.9584 33.7459 38.0042L33.798 41.1292V41.1271ZM43.598 32.5542C42.6994 34.7236 40.9758 36.4472 38.8063 37.3459L40.0001 40.2334C41.4535 39.6313 42.7742 38.7489 43.8866 37.6365C44.999 36.5241 45.8814 35.2035 46.4834 33.75L43.598 32.5542ZM28.1251 5.72919C31.5647 5.72919 34.0355 5.72919 35.9626 5.9146C37.8667 6.09585 39.0772 6.44169 40.0438 7.03335L41.6751 4.36877C40.1355 3.4271 38.3897 3.00627 36.2584 2.8021C34.1501 2.6021 31.5042 2.60419 28.1251 2.60419V5.72919ZM47.3959 21.875C47.3959 18.4959 47.3959 15.8521 47.1959 13.7417C46.9938 11.6104 46.573 9.86252 45.6313 8.32502L42.9647 9.95627C43.5584 10.9229 43.9043 12.1334 44.0855 14.0396C44.2688 15.9646 44.2709 18.4354 44.2709 21.875H47.3959ZM40.0417 7.03335C41.2338 7.76314 42.2361 8.76476 42.9668 9.95627L45.6313 8.32502C44.6434 6.71247 43.2876 5.35675 41.6751 4.36877L40.0438 7.03544L40.0417 7.03335ZM21.8751 2.60419C18.4959 2.60419 15.8522 2.60419 13.7417 2.8021C11.6105 3.00627 9.86258 3.4271 8.32508 4.36877L9.95633 7.03544C10.923 6.44169 12.1334 6.09585 14.0397 5.9146C15.9647 5.73127 18.4355 5.72919 21.8751 5.72919V2.60419ZM5.72925 21.875C5.72925 18.4354 5.72925 15.9646 5.91466 14.0375C6.09591 12.1334 6.44175 10.9229 7.03341 9.95627L4.36883 8.3271C3.42716 9.8646 3.00633 11.6104 2.80216 13.7417C2.60425 15.8542 2.60425 18.4959 2.60425 21.875H5.72925ZM8.32508 4.36877C6.71253 5.35675 5.35681 6.71456 4.36883 8.3271L7.0355 9.95627C7.76495 8.76523 8.76582 7.76366 9.95633 7.03335L8.32508 4.36877ZM22.9501 41.8542C22.5292 41.1396 22.1584 40.5084 21.7959 40.0125C21.4231 39.4688 20.9387 39.0108 20.3751 38.6688L18.8042 41.3709C18.9022 41.4292 19.0376 41.5334 19.2709 41.8542C19.523 42.2 19.8084 42.6792 20.2626 43.4459L22.9501 41.8542ZM16.2022 41.1271C17.1188 41.1438 17.6959 41.1563 18.1376 41.2042C18.5501 41.25 18.7105 41.3167 18.8042 41.3709L20.3751 38.6688C19.7918 38.3456 19.1461 38.151 18.4813 38.0979C17.8605 38.0292 17.1147 38.0188 16.2563 38.0042L16.2022 41.1313V41.1271ZM29.7376 43.4459C30.1917 42.6813 30.4772 42.2 30.7292 41.8542C30.9626 41.5334 31.098 41.4292 31.1959 41.3709L29.6251 38.6688C29.0209 39.0229 28.5834 39.4917 28.2043 40.0125C27.8438 40.5084 27.4709 41.1375 27.048 41.8542L29.7376 43.4459ZM33.7459 38.0042C32.8876 38.0188 32.1397 38.0292 31.5188 38.0979C30.8709 38.1709 30.2355 38.3146 29.6251 38.6688L31.1959 41.3709C31.2897 41.3167 31.4501 41.25 31.8626 41.2042C32.3042 41.1563 32.8834 41.1417 33.8001 41.1271L33.7459 38.0021V38.0042Z" fill="#E3F9FF"/>
<path d="M16.667 22.9167H16.6857M24.9816 22.9167H25.0003M33.3149 22.9167H33.3337" stroke="#E3F9FF" stroke-width="4" stroke-linecap="round" stroke-linejoin="round"/>
</svg>
