<svg width="30" height="30" viewBox="0 0 30 30" fill="none" xmlns="http://www.w3.org/2000/svg">
<path d="M6.875 19.375C6.875 18.1962 6.875 17.6075 7.24125 17.2413C7.6075 16.875 8.19625 16.875 9.375 16.875H10.625C11.8038 16.875 12.3925 16.875 12.7587 17.2413C13.125 17.6075 13.125 18.1962 13.125 19.375V20.625C13.125 21.8038 13.125 22.3925 12.7587 22.7588C12.3925 23.125 11.8038 23.125 10.625 23.125C8.8575 23.125 7.97375 23.125 7.425 22.575C6.875 22.0262 6.875 21.1425 6.875 19.375ZM6.875 10.625C6.875 8.8575 6.875 7.97375 7.425 7.425C7.97375 6.875 8.8575 6.875 10.625 6.875C11.8038 6.875 12.3925 6.875 12.7587 7.24125C13.125 7.6075 13.125 8.19625 13.125 9.375V10.625C13.125 11.8038 13.125 12.3925 12.7587 12.7587C12.3925 13.125 11.8038 13.125 10.625 13.125H9.375C8.19625 13.125 7.6075 13.125 7.24125 12.7587C6.875 12.3925 6.875 11.8038 6.875 10.625ZM16.875 19.375C16.875 18.1962 16.875 17.6075 17.2413 17.2413C17.6075 16.875 18.1962 16.875 19.375 16.875H20.625C21.8038 16.875 22.3925 16.875 22.7588 17.2413C23.125 17.6075 23.125 18.1962 23.125 19.375C23.125 21.1425 23.125 22.0262 22.575 22.575C22.0262 23.125 21.1425 23.125 19.375 23.125C18.1962 23.125 17.6075 23.125 17.2413 22.7588C16.875 22.3925 16.875 21.8038 16.875 20.625V19.375ZM16.875 9.375C16.875 8.19625 16.875 7.6075 17.2413 7.24125C17.6075 6.875 18.1962 6.875 19.375 6.875C21.1425 6.875 22.0262 6.875 22.575 7.425C23.125 7.97375 23.125 8.8575 23.125 10.625C23.125 11.8038 23.125 12.3925 22.7588 12.7587C22.3925 13.125 21.8038 13.125 20.625 13.125H19.375C18.1962 13.125 17.6075 13.125 17.2413 12.7587C16.875 12.3925 16.875 11.8038 16.875 10.625V9.375Z" stroke="#00AAD8" stroke-width="1.5"/>
<path d="M27.5 17.5C27.5 22.2137 27.5 24.5712 26.035 26.035C24.5712 27.5 22.2137 27.5 17.5 27.5M12.5 27.5C7.78625 27.5 5.42875 27.5 3.965 26.035C2.5 24.5712 2.5 22.2137 2.5 17.5M12.5 2.5C7.78625 2.5 5.42875 2.5 3.965 3.965C2.5 5.42875 2.5 7.78625 2.5 12.5M17.5 2.5C22.2137 2.5 24.5712 2.5 26.035 3.965C27.5 5.42875 27.5 7.78625 27.5 12.5" stroke="#00AAD8" stroke-width="1.5" stroke-linecap="round"/>
</svg>
