<svg width="25" height="25" viewBox="0 0 25 25" fill="none" xmlns="http://www.w3.org/2000/svg">
<g clip-path="url(#clip0_0_148)">
<path d="M13.65 4.00012C16.9022 4.00012 18.5294 4.00012 19.5391 5.01097C20.55 6.02067 20.55 7.64792 20.55 10.9001C20.55 14.1523 20.55 15.7796 19.5391 16.7893C18.5294 17.8001 16.9022 17.8001 13.65 17.8001H7.9C4.6478 17.8001 3.02055 17.8001 2.01085 16.7893C1 15.7796 1 14.1523 1 10.9001C1 7.64792 1 6.02067 2.01085 5.01097C3.02055 4.00012 4.6478 4.00012 7.9 4.00012H9.05M17.1 21.2501H11.35C8.0978 21.2501 6.4717 21.2501 5.46085 20.2393C4.89735 19.6758 4.6478 18.9214 4.5374 17.8001M22.9903 20.2393C24 19.2296 24 17.6023 24 14.3513C24 11.0968 24 9.47067 22.9903 8.46097C22.4268 7.89747 21.6712 7.64792 20.55 7.53752" stroke="#00AAD8" stroke-width="1.5" stroke-linecap="round"/>
<path d="M13.6499 10.8999C13.6499 11.6624 13.347 12.3937 12.8078 12.9328C12.2687 13.472 11.5374 13.7749 10.7749 13.7749C10.0124 13.7749 9.28114 13.472 8.74197 12.9328C8.2028 12.3937 7.8999 11.6624 7.8999 10.8999C7.8999 10.1374 8.2028 9.40614 8.74197 8.86697C9.28114 8.3278 10.0124 8.0249 10.7749 8.0249C11.5374 8.0249 12.2687 8.3278 12.8078 8.86697C13.347 9.40614 13.6499 10.1374 13.6499 10.8999Z" stroke="#00AAD8" stroke-width="1.5"/>
<path d="M17.1002 13.2003V8.60034M4.4502 13.2003V8.60034" stroke="#00AAD8" stroke-width="1.5" stroke-linecap="round"/>
</g>
<defs>
<clipPath id="clip0_0_148">
<rect width="25" height="25" fill="white"/>
</clipPath>
</defs>
</svg>
