<svg width="15" height="15" viewBox="0 0 15 15" fill="none" xmlns="http://www.w3.org/2000/svg">
<path fill-rule="evenodd" clip-rule="evenodd" d="M2.5 4.6428V10.3571C2.5 10.736 2.65051 11.0993 2.91842 11.3672C3.18633 11.6352 3.54969 11.7857 3.92857 11.7857H11.0714C11.4503 11.7857 11.8137 11.6352 12.0816 11.3672C12.3495 11.0993 12.5 10.736 12.5 10.3571V4.6428C12.5 4.26392 12.3495 3.90056 12.0816 3.63265C11.8137 3.36474 11.4503 3.21423 11.0714 3.21423H3.92857C3.54969 3.21423 3.18633 3.36474 2.91842 3.63265C2.65051 3.90056 2.5 4.26392 2.5 4.6428Z" stroke="#333333" stroke-linecap="round" stroke-linejoin="round"/>
<path d="M3.92871 5.35706L7.50014 7.49991L11.0716 5.35706" stroke="#333333" stroke-linecap="round" stroke-linejoin="round"/>
</svg>
