<svg width="20" height="20" viewBox="0 0 20 20" fill="none" xmlns="http://www.w3.org/2000/svg">
<g clip-path="url(#clip0_22_146)">
<path d="M15.8335 6.66667C17.2142 6.66667 18.3335 5.54738 18.3335 4.16667C18.3335 2.78596 17.2142 1.66667 15.8335 1.66667C14.4528 1.66667 13.3335 2.78596 13.3335 4.16667C13.3335 5.54738 14.4528 6.66667 15.8335 6.66667Z" stroke="#858585" stroke-width="1.5"/>
<path d="M5.83341 11.6667H13.3334M5.83341 14.5833H10.8334M1.66675 10C1.66675 13.9283 1.66675 15.8925 2.88675 17.1125C4.10841 18.3333 6.07175 18.3333 10.0001 18.3333C13.9284 18.3333 15.8926 18.3333 17.1126 17.1125C18.3334 15.8933 18.3334 13.9283 18.3334 10V8.75M11.2501 1.66667H10.0001C6.07175 1.66667 4.10758 1.66667 2.88675 2.88667C2.07591 3.69834 1.80341 4.83917 1.71258 6.66667" stroke="#858585" stroke-width="1.5" stroke-linecap="round"/>
</g>
<defs>
<clipPath id="clip0_22_146">
<rect width="20" height="20" fill="white"/>
</clipPath>
</defs>
</svg>
