<svg width="20" height="20" viewBox="0 0 20 20" fill="none" xmlns="http://www.w3.org/2000/svg">
<g id="radix-icons:cross-1">
<path id="Vector" fill-rule="evenodd" clip-rule="evenodd" d="M17.1389 3.80552C17.2008 3.74354 17.25 3.66995 17.2836 3.58897C17.3171 3.50798 17.3344 3.42118 17.3344 3.33352C17.3344 3.24587 17.3171 3.15907 17.2836 3.07808C17.25 2.99709 17.2008 2.92351 17.1389 2.86152C17.0769 2.79954 17.0033 2.75037 16.9223 2.71683C16.8413 2.68328 16.7545 2.66602 16.6669 2.66602C16.5792 2.66602 16.4924 2.68328 16.4114 2.71683C16.3304 2.75037 16.2568 2.79954 16.1949 2.86152L10.0002 9.05752L3.80552 2.86152C3.74354 2.79954 3.66995 2.75037 3.58897 2.71683C3.50798 2.68328 3.42118 2.66602 3.33352 2.66602C3.24587 2.66602 3.15907 2.68328 3.07808 2.71683C2.99709 2.75037 2.92351 2.79954 2.86152 2.86152C2.79954 2.92351 2.75037 2.99709 2.71683 3.07808C2.68328 3.15907 2.66602 3.24587 2.66602 3.33352C2.66602 3.42118 2.68328 3.50798 2.71683 3.58897C2.75037 3.66995 2.79954 3.74354 2.86152 3.80552L9.05752 10.0002L2.86152 16.1949C2.73634 16.32 2.66602 16.4898 2.66602 16.6669C2.66602 16.8439 2.73634 17.0137 2.86152 17.1389C2.98671 17.264 3.15649 17.3344 3.33352 17.3344C3.51056 17.3344 3.68034 17.264 3.80552 17.1389L10.0002 10.9429L16.1949 17.1389C16.32 17.264 16.4898 17.3344 16.6669 17.3344C16.8439 17.3344 17.0137 17.264 17.1389 17.1389C17.264 17.0137 17.3344 16.8439 17.3344 16.6669C17.3344 16.4898 17.264 16.32 17.1389 16.1949L10.9429 10.0002L17.1389 3.80552Z" fill="#755118"/>
</g>
</svg>
