<svg width="25" height="25" viewBox="0 0 25 25" fill="none" xmlns="http://www.w3.org/2000/svg">
<g id="solar:arrow-right-bold">
<path id="Vector" d="M20.8333 11.7188C21.0405 11.7188 21.2392 11.8011 21.3857 11.9476C21.5322 12.0941 21.6145 12.2928 21.6145 12.5C21.6145 12.7072 21.5322 12.9059 21.3857 13.0524C21.2392 13.199 21.0405 13.2813 20.8333 13.2813H11.1978V18.75C11.1977 18.9044 11.1518 19.0553 11.066 19.1837C10.9801 19.312 10.8581 19.4121 10.7155 19.4711C10.5728 19.5302 10.4158 19.5457 10.2644 19.5156C10.1129 19.4855 9.97376 19.4112 9.8645 19.3021L3.6145 13.0521C3.4682 12.9056 3.38602 12.707 3.38602 12.5C3.38602 12.293 3.4682 12.0944 3.6145 11.9479L9.8645 5.69793C9.97376 5.58881 10.1129 5.51451 10.2644 5.48443C10.4158 5.45434 10.5728 5.46981 10.7155 5.52888C10.8581 5.58796 10.9801 5.68799 11.066 5.81634C11.1518 5.94469 11.1977 6.0956 11.1978 6.25002V11.7188H20.8333Z" fill="white"/>
</g>
</svg>
